<svg enable-background="new 0 0 300 300" viewBox="0 0 300 300" xmlns="http://www.w3.org/2000/svg"><path d="m75 37 43 20.4c2.2 1 4.4 2.1 6.8 2.3h.8c2.3 0 4.5-.7 6.8-1.5 2.1-.7 4.2-1.4 6.4-1.6h1c2.4 0 4.7.6 7 1.1 1 .2 2.1.5 3.1.7s2.3.4 3.5.4c1.7 0 3.5-.3 5-1.1.5-.3 1-.4 1.5-.4.7 0 1.4.2 1.9.7 1.9 1.7 4.4 2.6 6.9 2.6 1 0 2.1-.2 3-.5.6-.2 1.2-.5 1.8-.7 1.3-.6 2.6-1.2 4.1-1.2h.2c2.1 0 3.9 1.2 5.5 2.3 1.1.8 2.3 1.6 3.6 2 1 .3 2 .4 3 .5l17.5 1.3c.8.1 1.6.1 2.4.1 1.1 0 2.1-.1 3.1-.4 1.1-.4 2.1-1.1 3.1-1.8.6-.4 1.3-.9 2-1.3 1.7-.9 3.6-1.4 5.5-1.9l.5-.1c13.6-3.5 26.5-9.3 38.2-17l1.1-.7-.2 1.3c-3.2 18.3-11.3 35.3-23.5 49.2l-.2.2c-.8.9-1.7 1.9-2.3 3-.4.7-.6 1.5-.9 2.3-.1.3-.2.6-.3.9-.4 1-.8 2-1.2 3.1-1.5 3.6-3 7.2-1.4 10.4.2.3.4.7.6 1 .3.5.7 1.1.9 1.7.6 1.5.3 3.1 0 4.6-.1.8-.3 1.7-.3 2.5 0 1.2.9 2.7 1.9 3.2.2.1.5.2.7.2.3 0 .5-.1.8-.3l1.4-1.2-4.1 13.4c-.3.9-.5 1.6-.2 2.3.1.3.4.6.7.7h.2c.1 0 .2 0 .3-.1l2-1.5-1.2 2.2c-.7 1.3-1.5 2.7-2.2 4.1-.7 1.3-1.3 2.5-2 3.7 1.7 1.3 3.7 2.3 5.7 3l1.2.4-1.2.6c-.8.4-1.4 1.2-1.7 2.1s-.2 1.9.2 2.7c.1.2.2.4.4.6.3.5.7 1 .7 1.7.1.7-.1 1.3-.3 1.8l-.1.3c-.4 1.2-.5 2.4-.6 3.8-.1.9-.2 1.9-.3 2.9-.4 2-1.5 4.3-3.5 5.2.7.7 1.6 1.2 2.5 1.7.4.2.9.5 1.3.7 1.6 1 3.4 2.9 2.8 5-.3 1.3-1.4 2.1-2.5 2.9-2.8 1.9-5.6 3.4-8.5 4.5-16.1 6.4-33.2 8-50 8-6.3 0-12.6-.2-18.8-.5-20.9-1-44.9-2.9-65.5-14.5l-.1-.1-8.5-16.8c-.5-1-1.2-2.3-1-3.7.1-1.2.8-2.1 1.4-3 .3-.4.6-.8.8-1.3 1.1-2 .9-4.6.7-6.6l-1.2-13.2.1-.1c.8-1.5 0-3.3-.9-5.1-.9-2-1.8-4.1-.9-6 .3-.7.8-1.2 1.3-1.7.4-.4.8-.9 1-1.3.8-1.5.4-3.3 0-5.1-.1-.4-.2-.7-.2-1.1-1.2-6.2 1-13 5.7-17.3l-1.7-2.5.4-.3c4.5-3.3 5.3-9.8 4-14.8-1.1-4.5-3.7-8.7-6.2-12.7-.5-.7-.9-1.5-1.4-2.2-5.3-8.8-9.6-18.2-12.6-28zm104 157.8c16.7 0 33.7-1.6 49.6-7.9 2.8-1.1 5.6-2.6 8.3-4.4.9-.6 1.8-1.3 2-2.2.4-1.5-1-3-2.3-3.8-.4-.2-.8-.5-1.2-.7-1.3-.7-2.5-1.4-3.4-2.6l-.5-.7.8-.2c2-.4 3.2-2.7 3.5-4.6.2-.9.3-1.8.3-2.8.1-1.3.2-2.7.6-4l.1-.3c.2-.5.3-.9.3-1.4-.1-.4-.3-.8-.6-1.3-.1-.2-.3-.5-.4-.7-.5-1-.6-2.3-.2-3.5.3-.8.7-1.5 1.3-2.1-2-.8-3.8-1.8-5.4-3.1l-.4-.3.2-.4c.7-1.3 1.5-2.7 2.2-4.1.6-1.1 1.1-2.1 1.7-3.2h-.1c-.7-.2-1.2-.8-1.5-1.4-.4-1 0-2.2.2-3l3.2-10.5c-.1 0-.2 0-.3 0-.4 0-.8-.1-1.2-.3-1.5-.7-2.6-2.5-2.6-4.2 0-.9.2-1.8.3-2.7.3-1.4.5-2.8 0-4.1-.2-.5-.5-1-.8-1.5-.2-.4-.5-.7-.7-1.1-1.9-3.6-.3-7.5 1.3-11.3.4-1 .8-2 1.2-3 .1-.3.2-.6.3-.9.3-.8.5-1.7 1-2.5.6-1.2 1.5-2.2 2.4-3.2l.2-.2c11.8-13.4 19.8-29.8 23.1-47.4-11.6 7.5-24.2 13-37.5 16.4l-.5.1c-1.8.5-3.6.9-5.2 1.8-.7.4-1.3.8-1.9 1.2-1.1.7-2.1 1.5-3.4 1.9-1.1.4-2.3.5-3.4.5-.9 0-1.7-.1-2.5-.1l-17.5-1.3c-1.1-.1-2.2-.2-3.2-.5-1.4-.4-2.7-1.3-3.9-2.1-1.6-1.1-3.1-2.1-4.9-2.1-1.3 0-2.5.5-3.8 1.1-.6.3-1.3.6-1.9.8-1.1.4-2.2.5-3.4.5-2.7 0-5.5-1-7.6-2.9-.3-.3-.8-.4-1.2-.4-.3 0-.7.1-1 .3-1.7 1-3.7 1.3-5.5 1.3-1.3 0-2.6-.2-3.7-.4-1-.2-2.1-.5-3.1-.7-2.3-.6-4.5-1.1-6.7-1.1-.3 0-.6 0-.9 0-2.1.1-4.1.8-6.1 1.5-2.3.8-4.7 1.6-7.2 1.6-.3 0-.6 0-.8 0-2.6-.2-5-1.3-7.2-2.4l-40.7-19.1c3 9.3 7 18.2 12.1 26.5.4.7.9 1.5 1.4 2.2 2.5 4.1 5.2 8.3 6.3 13 1.3 5.2.5 11.9-4 15.6l1.7 2.5-.4.3c-4.6 4-6.9 10.5-5.7 16.5.1.3.1.7.2 1 .4 2 .9 4-.1 5.8-.3.6-.8 1.1-1.2 1.6s-.8.9-1.1 1.5c-.7 1.5 0 3.3.9 5.1.9 2 1.8 4 .9 5.9l1.2 12.9c.2 2.2.5 5-.8 7.3-.3.5-.6.9-.9 1.4-.6.8-1.1 1.6-1.2 2.4-.1 1 .3 2 .9 3.1l8.5 16.4c20.3 11.4 44.1 13.3 64.9 14.3 6.1.1 12.3.4 18.6.4m-104-167.8c-2.4 0-4.7.8-6.5 2.4-3 2.6-4.2 6.7-3 10.5l.4 1.2c3.3 10.6 7.9 20.8 13.6 30.2.5.8.9 1.5 1.4 2.3 2.2 3.5 4.2 6.8 5 9.8.5 2.1 0 4-.3 4.3l-.4.3c-3 2.2-4.4 5.7-4 9.1-3.8 6.1-5.2 13.5-3.8 20.6 0 .2.1.4.1.6-.5.6-1 1.4-1.4 2.3-3 6.2-.5 11.8.7 14.5-.1.7-.1 1.4 0 2.1l1.2 13.2c0 .4.1 1 .1 1.4-1 1.4-2.6 3.9-3 7.3-.5 4.4 1.3 8 2.1 9.5l8.6 16.7c.9 1.7 2.3 3.2 4 4.1l.1.1c22.5 12.6 47.9 14.8 69.9 15.8 5.6.3 12.3.5 19.3.5 13.6 0 34.1-.9 53.7-8.7 3.6-1.4 7.1-3.3 10.4-5.5 1.3-.9 5.2-3.5 6.6-8.6 1.2-4.4 0-9-3.1-12.6.1-.2.1-.5.1-.7.3-1.5.4-2.9.5-4 0-.6.1-1.4.2-1.7l.1-.2c.3-1 1.1-3.3.7-6.1 0-.3-.1-.5-.1-.7 1.3-1.8 1.9-4.1 1.7-6.4-.2-2.7-1.5-5.1-3.4-6.8l.7-1.3c1.7-3.2 1.6-6.9-.2-9.9l2-6.4c.3-1 .5-2.1.5-3.2 0-3.4-1.7-6.4-4.3-8.2-.1-1.3-.4-2.8-.9-4.3-.4-1.2-1-2.2-1.4-2.9.3-.8.8-2 1.1-2.9.4-1.1 1-2.3 1.4-3.6.1-.4.3-.8.4-1.1.1-.2.2-.6.3-.8.2-.3.6-.7.9-1v-.2c13.5-15.3 22.4-34 25.9-54.1l.2-1c.1-.6.2-1.3.2-2 0-5.5-4.5-10-10-10-2.1 0-4 .6-5.6 1.7l-1 .6c-10.9 7.3-22.7 12.5-35.3 15.8l-.4.1c-2.2.6-4.9 1.3-7.8 2.8-1.1.6-2.1 1.3-2.9 1.8-.2.2-.5.3-.7.5-.4 0-1 0-1.6-.1l-17.5-1.3c-.2 0-.5 0-.7-.1-.3-.2-.7-.5-1-.7-2.2-1.5-5.9-3.9-10.9-4-.1 0-.3 0-.4 0-3.5 0-6.3 1.2-8 2l-.2.1c-.3.1-.7.3-.9.4-.1 0-.1 0-.2-.1-2.4-2.1-5.4-3.2-8.6-3.2-2.1 0-4.3.5-6.1 1.5-.1 0-.2 0-.4 0-.5 0-1-.1-1.6-.2-.8-.2-1.7-.4-2.6-.6-2.6-.6-5.8-1.4-9.3-1.4-.6 0-1.1 0-1.7.1-3.5.3-6.5 1.3-8.9 2.1-1.3.4-3 1-3.6 1-.6-.1-2.2-.8-3.2-1.3l-43-20.4c-1.3-.7-2.8-1-4.2-1zm29.2 70.7c3.5-6.4 3.5-13.9 2.1-19.4-1.6-6.2-4.8-11.3-7.6-15.8l-.1-.2c-.4-.7-.8-1.3-1.2-2-.1-.2-.2-.4-.4-.6l16.1 7.6c2.6 1.2 6.2 3 10.7 3.3.5 0 1.1.1 1.6.1 4.1 0 7.6-1.2 10.4-2.1 1.3-.5 2.9-1 3.7-1h.2c1 0 2.6.4 4.3.8 1.1.3 2.3.6 3.6.8 1.9.4 3.8.6 5.6.6 1.9 0 3.7-.2 5.5-.6 3 1.6 6.4 2.4 9.9 2.4 2.2 0 4.5-.4 6.6-1.1.8-.3 1.5-.6 2.1-.8 1.5 1 3.6 2.4 6.3 3.2 2.2.7 4.1.8 5.5.9l17.5 1.3c.9.1 2 .2 3.3.2 2.5 0 4.7-.3 6.7-1.1 2.5-.9 4.4-2.2 5.8-3.1.4-.3.9-.6 1.1-.7.5-.3 1.9-.6 2.9-.9l.5-.1c6.2-1.6 12.2-3.6 18-6-3.5 7.5-8.1 14.4-13.6 20.7l-.2.2c-1.1 1.2-2.6 2.9-3.8 5.2-.8 1.5-1.3 3-1.6 4-.1.2-.1.4-.2.7-.3.7-.6 1.6-1 2.4-1.9 4.5-5 12.1-1 19.8.1.3.3.5.4.7-.2 1-.4 2.4-.4 3.9 0 2.9.9 5.7 2.4 8.1l-1.2 4c-.4 1.2-1.3 4.2-.5 7.7-.4.8-.8 1.5-1.2 2.2l-.2.4c-2.3 4.3-1.2 9.6 2.6 12.6l.4.3c.1 0 .1.1.2.1.1 1.4.4 2.7.9 4-.2 1.3-.3 2.5-.4 3.4-1.8 1.1-3.2 2.8-4 4.8-1.2 3.1-.8 6.7 1.1 9.4-12.2 4.6-25.9 6.6-44.4 6.6-6.5 0-12.9-.3-18.3-.5-18.7-.9-40-2.5-57.9-11.7l-5.8-11.3c2.6-4.9 2.2-9.8 1.9-12.8l-1-11.1c.7-3.8-.3-7.1-1.3-9.4.1-.2.3-.5.4-.8 2.8-5.1 1.7-10.1 1.1-12.7-.1-.3-.1-.5-.2-.8-.5-2.5.5-5.4 2.4-7.1l.4-.3c2.5-2 3.6-5.2 3.3-8.4z" fill="#fff"/><path d="m182.5 178.7c28.6 0 64.2 1.3 79.2 3.2 14.9 1.9 20.4 8.1 22.4 11.6 1.8 3.3 2.1 7 .6 10.1-9.3 20.1-19.1 35-28.3 42.9-13.8 11.9-25.6 14.1-83.5 15.8-6.7.2-13.7.3-20.7.3-52.9 0-110.8-5-119-7l-.5-.1c-5.9-1.4-16.9-4.1-19.1-11.5-1.5-5 1.3-11.4 8.4-18.9 14.7-15.6 32.7-29.7 42.2-36.8 4.7-3.5 10.2-5.7 16-6.4 14.9-1.8 33.5-2 51.5-2.2 9.6-.1 18.7-.2 27.1-.6 6.7-.2 14.9-.4 23.7-.4m-30.3 82.7c7 0 14-.1 20.7-.3 57.6-1.7 69.2-3.8 82.8-15.5 6.4-5.4 16.4-17.2 28-42.5 1.3-2.8 1.1-6.1-.6-9.1-3.2-5.7-11-9.7-21.6-11.1-15-1.9-50.4-3.2-79-3.2-8.8 0-17 .1-23.7.4-8.4.3-17.5.4-27.1.6-18 .2-36.6.4-51.4 2.2-5.6.7-10.9 2.8-15.5 6.2-9.4 7-27.4 21.1-42 36.6-6.8 7.2-9.5 13.2-8.1 17.8 2 6.8 12.6 9.3 18.3 10.7l.5.1c8.2 2.2 65.9 7.1 118.7 7.1m30.3-92.7v10-10c-9.4 0-17.5.1-24.1.4-8.2.3-17.2.4-26.8.5-18.3.2-37.2.4-52.6 2.3-7.5.9-14.7 3.8-20.8 8.3-9.7 7.2-28.3 21.8-43.5 37.9-9.7 10.3-13.3 19.9-10.7 28.6 3.8 12.9 19 16.6 26.3 18.3l.5.1c10 2.4 69.5 7.3 121.3 7.3 7.4 0 14.4-.1 21-.3 57.5-1.7 72.7-3.5 89.7-18.2 10.5-9 20.9-24.5 30.9-46.3 2.8-6 2.4-13-1-19.1-2.9-5.2-10.6-14.3-29.9-16.7-16.2-1.8-53.6-3.1-80.3-3.1zm-158 72c.3-1 1.5-3.6 5.7-8.1 14.1-15 31.5-28.6 40.7-35.5 3.1-2.3 6.8-3.8 10.7-4.3 14.3-1.7 32.6-1.9 50.3-2.2h.1c9.7-.1 18.8-.2 27.3-.6 6.3-.3 14.2-.4 23.3-.4 29.7 0 63.8 1.4 77.8 3.1 9.1 1.1 13.1 4.3 14.1 6 .1.1.1.2.1.3-11.4 24.7-20.8 34.9-25.3 38.8-10.6 9.1-19 11.4-76.6 13.1-6.4.2-13.2.3-20.4.3-52.9 0-109.5-5-116.3-6.7l-.5-.1c-5.9-1.2-9.6-2.5-11-3.7z" fill="#fff"/><path d="m95 180.4c-2.8-5.5-5.7-11-8.5-16.5-.5-1.1-1.1-2.2-1-3.4.2-1.5 1.5-2.7 2.2-4 1.1-2.1 1-4.6.7-6.9-.4-4.3-.8-8.7-1.2-13 1.7-3.5-3.4-7.6-1.7-11.2.6-1.1 1.7-1.9 2.3-3 1.1-1.9.3-4.3-.2-6.5-1.2-6.2 1.1-12.9 5.9-17.1l-1.7-2.5c4.5-3.3 5.6-9.9 4.2-15.4s-4.7-10.2-7.6-15c-5.3-8.7-9.6-18.1-12.6-27.8 13.9 6.6 27.9 13.2 41.8 19.8 2.2 1.1 4.5 2.1 7 2.3 4.8.4 9.3-2.7 14.1-3.1 3.7-.3 7.2 1.1 10.9 1.8 3 .6 6.3.6 8.9-.8.9-.5 2-.5 2.8.2 2.8 2.5 6.9 3.4 10.4 2.2 2-.7 3.9-1.9 6-1.9 3.4 0 5.8 3.3 9 4.3 1 .3 2.1.4 3.1.5 5.8.4 11.6.9 17.5 1.3 1.9.1 3.9.3 5.7-.3 1.9-.7 3.5-2.1 5.3-3.1s3.8-1.5 5.8-2c13.6-3.5 26.7-9.3 38.4-17.1-3.1 18-11.3 35.2-23.4 48.9-.9 1.1-1.9 2.1-2.5 3.3-.5 1-.8 2.2-1.2 3.3-1.6 4.6-4.8 9.6-2.5 13.9.5.9 1.2 1.7 1.5 2.7.8 2.2-.3 4.6-.3 6.9s2.5 5 4.3 3.5c-1.2 3.9-2.4 7.7-3.6 11.6-.3.9-.5 1.8-.2 2.6s1.4 1.4 2.1.9c-1.4 2.7-3 5.6-4.4 8.3 1.9 1.5 4 2.6 6.3 3.4-1.9 1-2.7 3.6-1.8 5.5.4.7 1 1.3 1.1 2.1.1.7-.2 1.3-.4 1.9-.7 2.2-.5 4.5-.9 6.7s-1.8 4.5-4 5c1.1 1.5 2.9 2.2 4.5 3.1s3 2.7 2.6 4.4c-.3 1.1-1.3 1.9-2.3 2.6-2.6 1.8-5.5 3.3-8.4 4.5-21.7 8.6-45.4 8.5-68.6 7.4-22.7-.9-45.8-3.3-65.4-14.3z" fill="#fefbf4"/><path d="m259.9 52.3c-.2-.2-4 1.3-4.4 1.4-6.8 2.1-12.9 5.3-18.7 9.5-4.9 3.6-8.9 7.7-13.3 11.8-3.1 2.8-6.2 4.7-10.4 5.2-.8.1-1.4-.1-1.8-.6-1.9 2.4-.3 5.7 2.8 7.4 2.6 1.4 5.7 1.6 8.5 1.2 5.3-.8 9.6-3.9 13.3-7.6 6.5-6.5 12.1-13.7 18.7-20.2.6-.6 3.4-3.5 4.8-5.7.2-.7.4-1.4.6-2.1 0-.1 0-.2-.1-.3z" fill="#d2d2ca"/><path d="m109.4 68.6c-.3-3.4-2.4-6.4-4.9-8.8s-5.4-4.1-8.2-6.2c-2.8-2.2-5.4-4.7-8.4-6.6-3-2-6.4-3.5-10-3.3 3 1.7 3.9 5.9 6.3 8.4 1.9 2 4.4 3.1 6.5 4.9 4.6 4.1 5.6 11.2 10.3 15.3 1.5 1.3 3.4 2.2 5.3 1.9 2.1-.5 3.3-3.4 3.1-5.6z" fill="#d87873"/><path d="m257.5 52.6c-4.3.6-8.3 2.4-12.2 4.3-8.1 3.9-16 8.1-23.9 12.4-2.3 1.2-4.5 2.5-6.6 4-1.4 1-2.8 2.1-3.7 3.5-1 1.4-1.5 3.3-1 4.9 4.9 3.7 12.4 2.8 16.9-1.4 1.3-1.2 2.3-2.7 3.4-4 4.4-5.7 9.8-10.6 15.8-14.5 4.1-2.7 9.7-4.7 11.3-9.2z" fill="#d87873"/><path d="m101.2 179c-1.8-2.9-3.2-5.3-3.2-8.8 0-1.9.4-3.6-.1-5.6s-1.8-3.9-2.5-5.9c-1.1-3.1-1.3-6.3-1.7-9.6-.5-4.2-1.9-8.2-2-12.4-.2-4.3 1.3-8.3 1.7-12.5.3-3.4.1-6.9 1-10.3 1.9-6.7 5.9-13.3 8.7-19.6 2.6-5.7 7-14.4 4.9-20.8-1.2-3.8-5.3-6.2-8.3-8.4-3-2.3-5.9-4.6-8.7-7.2-5.7-5.3-10.7-11-14.6-17.7 2.9 8.9 6.9 17.5 11.8 25.5 2.9 4.8 6.3 9.5 7.6 15 1.4 5.5.3 12-4.2 15.4l1.7 2.5c-4.8 4.1-7.1 10.9-5.9 17.1.4 2.2 1.2 4.5.2 6.5-.6 1.1-1.7 1.9-2.3 3-1.7 3.5 3.5 7.7 1.7 11.2.4 4.3.8 8.7 1.2 13 .2 2.4.4 4.9-.7 6.9-.7 1.3-2 2.5-2.2 4-.1 1.2.4 2.3 1 3.4 2.8 5.5 5.7 11 8.5 16.5 2.9 1.6 5.9 3.1 8.9 4.3-.5-1.7-1.3-3.6-2.5-5.5z" fill="#d2d2ca"/><path d="m176 134c-3 3.1-6.1 6.1-9.3 8.9-5.4 4.8-10.6 8.3-18 7.6-6.1-.6-13.9-3.4-19.2-6.6-1.8-1.1-3.3-2.4-4.2-4.3-1.8-3.8-1.2-8.4-5.6-10.5-.2-.1-.4-.3-.5-.4-.7-.3-1.1-1.1-.6-2 6.1-10 1.1-9.5.4-8.3-.5.9-2.2 6.5-2.7 7.5-.9 2-.7 4.7.3 6.8.7 1.3 2.5 2.3 3.4 3.6 3.3 5-1.3 7.7-5.7 8.8-2.9.7-5.7.8-8.4-.7-.5-.3-1.1-.6-1.5-.9.6 1.2 1.6 2.5 2.1 3 2 2.3 5.2 1.2 6.9 4 1.9 3.1.8 8.9 1.5 12.3 3 4 4.5 9.6 9.1 11.8 2.6 1.2 6.6.8 9.4 1 1.8.1 3.6.2 5.4.1-6-3-11.4-2.8-16.3-7.7-2.2-2.2-6.7-9.6-2.8-12.4 3.5-2.6 10.1.2 13.7 1.2 8.2 2.3 18.7 6.8 25.5-.9 1.1-1.2 2.7.1 2.5 1.4-.8 4.3.7 6.7 3 9.9 1.7 2.4 2.5 1.4 3.1-1.1.5-2.3 1-4.6 1.7-6.9 1.6-5.2 3.7-10.2 6.1-15 2.8-5.5 5.9-10.7 7.1-16.8-2.5 1.5-4.4 4.4-6.4 6.6z" fill="#d2d2ca"/><path d="m109.3 148.3.2-.3 6.9-1.6 6.9-.9 7.7 1.9 8.1 4.1 9 3.6s4.7 1.6 6.7 1.6 5.8-1.1 7-2c1.2-.8-2.5 2.2-2.5 2.2l-4.3 2.4-3.8 1.3s-2 .9-4.7.8-8.9-1.6-8.9-1.6l-6.8-1.4h-4.7l-5.1.8-4.7-.6-2.6-1.8-2.7-3.7-1.2-2.7z" fill="#38383b"/><path d="m125.3 152.4c3.9-.3 7.8.8 11.2 2.7.9.5 1.8 1.1 2.8 1.7 2.8 1.6 6 2.5 8.5 4.4-.5.3-1.2.4-1.8.4-3.1.1-6.1-.7-9-1.6-1.1-.4-2.3-.8-3.5-1.1-3.5-.9-7.2-.7-10.6.4-.9.3-1.9.2-2.9.3-1.4.1-2.7 0-3.7-.9-.6-.5-.9-.8-.4-1.5.4-.6 1-1.1 1.5-1.5 2.3-2 5.1-3.1 7.9-3.3z" fill="#b9635b"/><path d="m125.9 167.2c.2-.4.5-.8.8-1.2 0-.1.1-.1.2 0 0 0 .1.1.1.1.2 1.1.5 2.1.9 3.2l-.7-.1c.3-.6.6-1.2.9-1.8.1-.2.4-.3.7-.2l.3.3c.3 1.1.6 2.3 1 3.4l-1-.1c.5-1.1.9-2.2 1.3-3.3.1-.3.4-.4.6-.3s.3.2.3.4c.1.8.1 1.6.2 2.4l-.6-.2c.8-.8 1.6-1.7 2.3-2.7l.1.1-.3.3.2-.3h.1v.1c-.4 1.1-1 2.2-1.8 3.2-.1.2-.4.2-.5.1s-.1-.1-.1-.2c-.1-.8-.3-1.5-.4-2.3l.9.1c-.3 1.2-.7 2.4-1.2 3.5-.1.3-.4.4-.7.3-.2-.1-.3-.2-.3-.4-.3-1.1-.6-2.3-.8-3.4l.9.1c-.3.6-.7 1.2-1 1.8-.1.2-.4.3-.6.1-.1-.1-.1-.1-.2-.2-.3-1.1-.5-2.3-.5-3.4l.3.1c-.7-.2-1 .2-1.4.5z" fill="#a9a8a3"/><path d="m95 180.4c-2.8-5.5-5.7-11-8.5-16.5-.5-1.1-1.1-2.2-1-3.4.2-1.5 1.5-2.7 2.2-4 1.1-2.1 1-4.6.7-6.9-.4-4.3-.8-8.7-1.2-13 1.7-3.5-3.4-7.6-1.7-11.2.6-1.1 1.7-1.9 2.3-3 1.1-1.9.3-4.3-.2-6.5-1.2-6.2 1.1-12.9 5.9-17.1l-1.7-2.5c4.5-3.3 5.6-9.9 4.2-15.4s-4.7-10.2-7.6-15c-5.3-8.7-9.6-18.1-12.6-27.8 13.9 6.6 27.9 13.2 41.8 19.8 2.2 1.1 4.5 2.1 7 2.3 4.8.4 9.3-2.7 14.1-3.1 3.7-.3 7.2 1.1 10.9 1.8 3 .6 6.3.6 8.9-.8.9-.5 2-.5 2.8.2 2.8 2.5 6.9 3.4 10.4 2.2 2-.7 3.9-1.9 6-1.9 3.4 0 5.8 3.3 9 4.3 1 .3 2.1.4 3.1.5 5.8.4 11.6.9 17.5 1.3 1.9.1 3.9.3 5.7-.3 1.9-.7 3.5-2.1 5.3-3.1s3.8-1.5 5.8-2c13.6-3.5 26.7-9.3 38.4-17.1-3.1 18-11.3 35.2-23.4 48.9-.9 1.1-1.9 2.1-2.5 3.3-.5 1-.8 2.2-1.2 3.3-1.6 4.6-4.8 9.6-2.5 13.9.5.9 1.2 1.7 1.5 2.7.8 2.2-.3 4.6-.3 6.9s2.5 5 4.3 3.5c-1.2 3.9-2.4 7.7-3.6 11.6-.3.9-.5 1.8-.2 2.6s1.4 1.4 2.1.9c-1.4 2.7-3 5.6-4.4 8.3 1.9 1.5 4 2.6 6.3 3.4-1.9 1-2.7 3.6-1.8 5.5.4.7 1 1.3 1.1 2.1.1.7-.2 1.3-.4 1.9-.7 2.2-.5 4.5-.9 6.7s-1.8 4.5-4 5c1.1 1.5 2.9 2.2 4.5 3.1s3 2.7 2.6 4.4c-.3 1.1-1.3 1.9-2.3 2.6-2.6 1.8-5.5 3.3-8.4 4.5-21.7 8.6-45.4 8.5-68.6 7.4-22.7-.9-45.8-3.3-65.4-14.3z" fill="none" stroke="#000" stroke-miterlimit="10" stroke-width="1.1098"/><path d="m118.2 133.2c-1.2-1.4-2.8-3-2.5-4.8.2-1.3 1.4-2.3 2.6-2.7 1.3-.4 2.6-.3 3.9-.1 5.8.7 11.4 2.7 16.4 5.7-.3.5-.9.8-1.5 1-2.2.9-4.6 1.4-6.8 2.4-2.2.9-4.4 2.4-5.5 4.5-1.3 2.6-2 2.5-3 .2-.9-2.4-2-4.4-3.6-6.2z" fill="#b9635b"/><path d="m126.2 133.1c1.3-1.1 3-1.6 4.7-1.3-.1.9-1.1 1.4-1.9 1.8-1.6.8-3 1.9-4.1 3.3-.4.5-.8 1-1.4 1.2-.3.1.2-1.1.2-1.2.2-.5.4-.9.6-1.4.4-1 1.1-1.8 1.9-2.4z" fill="#9e4844"/><path d="m120.2 132.8c.6.8 1 1.6 1.4 2.5.3.6.5 1.1.8 1.7.6-.7.7-1.6.6-2.5-.2-.9-.6-1.7-1.1-2.4s-1.1-1.3-1.8-1.6-1.7-.2-2.1.5c.7.7 1.5 1 2.2 1.8z" fill="#9e4844"/><path d="m123.8 128.1c-.5.7-.9 1.6-.8 2.5 1-.6 1.5-1.7 2.4-2.4s2-1 3.1-.8c.2 0 .5 0 .6-.1.1-.2-.2-.4-.4-.5-.7-.2-1.5-.5-2.2-.7-.5-.2-1.1-.3-1.6-.4-1-.2-2.1 0-3.1.2.6.2 1.3.3 1.9.5.2.1.5.1.6.4 0 .1.1.2.1.3.1.1.2 0 .3 0 .3-.2.6-.4.9-.6-.7.3-1.3.9-1.8 1.6z" fill="#9e4844"/><path d="m118.2 133.2c-.8-1-1.8-1.9-2.4-3.1-.3-.6-.4-1.3-.3-2s.5-1.3 1-1.8c1-1 2.5-1.4 3.8-1.4 1.4 0 2.6.2 3.9.5 2.6.5 5 1.4 7.5 2.3 2.4.9 4.8 2 7.1 3.2l.3.2-.2.3c-.4.6-1 .9-1.6 1.2-.6.2-1.1.5-1.7.7-1.1.4-2.3.8-3.3 1.1-2.2.8-4.3 1.8-5.8 3.4-.4.4-.7.8-1 1.3s-.6 1-1 1.5c-.2.3-.4.5-.8.7-.2.1-.5.2-.8.1-.1 0-.2-.1-.3-.2l-.2-.2c-.5-.6-.7-1.1-.9-1.7-.7-2.2-1.7-4.3-3.3-6.1zm.1-.1c1.6 1.8 2.9 3.8 3.9 5.9.2.5.6 1 .9 1.3.2.1.2.1.3 0s.3-.3.4-.5c.3-.4.5-.9.8-1.5s.7-1.1 1.1-1.5c1.7-1.9 4.1-2.9 6.3-3.6 1.1-.4 2.3-.7 3.4-1 .6-.2 1.1-.4 1.7-.6.5-.2 1-.4 1.3-.8l.1.5c-2.1-1.4-4.4-2.6-6.8-3.5s-5-1.4-7.5-1.8c-1.3-.2-2.6-.4-3.8-.4s-2.4.2-3.4 1c-.5.4-.8.8-1 1.4s-.1 1.2.1 1.8c.4 1.4 1.3 2.4 2.2 3.3z"/><path d="m162.6 103.4c5.7-1.2 11.7-.6 17.1 1.7.3.1.6.3.7.6.1.4-.3.7-.6 1-3.7 2.9-7.5 5.8-12 7-1.9.5-3.8.7-5.7.8-2.4.2-14.6.3-13-3.7.7-1.8 4.6-3.7 6.2-4.6 2.2-1.3 4.7-2.2 7.3-2.8z"/><path d="m105 105.8c.6 1 1.4 1.9 2.2 2.7 1.4 1.5 3 2.8 4.8 3.5 1.9.7 4.1.7 5.8-.4s2.7-3.3 1.9-5.2c-.5-1.2-1.5-2-2.5-2.7-2.4-1.6-5.1-2.8-7.9-3.4-2.2-.5-6.3-1.3-8.4-.2.4.8 1.5 1.4 2.1 2.2.8 1.2 1.3 2.4 2 3.5z"/><path d="m117.9 128.3c.6-.5 1.2-.6 1.8-.6s1.3.2 1.8.7c-.7.3-1.2.4-1.8.4s-1.2-.1-1.8-.5z"/><path d="m129.2 128.7c.8-.1 1.4.2 2 .5s1.1.7 1.4 1.4c-.8.1-1.4-.2-2-.5-.5-.3-1-.7-1.4-1.4z"/><path d="m77.9 43.7c1.7-.2 3.5.1 5.2.6s3.3 1.3 4.8 2.3c3 1.9 5.6 4.3 8.4 6.4 2.7 2.1 5.7 4 8.3 6.5 1.3 1.2 2.4 2.6 3.3 4.2.8 1.6 1.4 3.3 1.5 5.1-.3-1.7-1-3.4-1.9-4.8s-2.1-2.7-3.4-3.8c-2.6-2.3-5.6-4.1-8.4-6.2-2.8-2.2-5.3-4.6-8.1-6.6-1.4-1-2.9-1.8-4.5-2.5-1.7-.8-3.4-1.2-5.2-1.2z"/><path d="m95.4 77.6c1-.7 1.9-1.1 2.9-1.5s2-.7 3.1-.9c-.7.9-1.7 1.5-2.7 1.9-1 .5-2.2.7-3.3.5z"/><path d="m97.4 73.4c.2-.7.5-1.2 1-1.5.5-.4 1-.7 1.7-.7-.2.7-.5 1.2-1 1.5-.5.4-1 .7-1.7.7z"/><path d="m91.5 69.2c.2-1.4.9-2.7 1.8-3.9.9-1.1 2-2.1 3.4-2.6-.8 1.2-1.7 2.2-2.5 3.3-.9 1.1-1.7 2.1-2.7 3.2z"/><path d="m88.7 62.2c-.1-.7.1-1.3.4-1.8s.7-1 1.3-1.2c.1.7-.1 1.3-.4 1.8-.3.4-.6.9-1.3 1.2z"/><path d="m87.3 59.5c0-.7.2-1.2.6-1.6.3-.4.8-.8 1.4-.9 0 .7-.2 1.2-.6 1.6s-.8.7-1.4.9z"/><path d="m219.1 82.5c2.4 1.6 4.4 3.7 6.2 5.9s3.4 4.6 4.5 7.3c-1.9-2.2-3.6-4.4-5.4-6.6-1.7-2.2-3.5-4.4-5.3-6.6z"/><path d="m222.2 77c2.4.9 4.5 2.2 6.5 3.8 1.9 1.6 3.7 3.4 5.1 5.5-2-1.5-3.9-3.1-5.8-4.6-1.9-1.6-3.9-3.1-5.8-4.7z"/><path d="m229.6 95.4c-.8-2.1-1.6-4-2.6-5.8-.5-.9-1.1-1.8-1.7-2.7-.5-.9-1-2-1.2-3.1 1.1 1.9 2.6 3.3 3.8 5.2 1.2 2 1.8 4.2 1.7 6.4z"/><path d="m230.2 77.2c1.3.1 2.4.5 3.5.9s2.2.9 3.2 1.7c-1.3.1-2.5-.2-3.6-.6-1.1-.5-2.2-1.1-3.1-2z"/><path d="m234.2 75.6c1.4.4 2.7.8 4 1.2s2.6.7 4 1.2c-1.4.4-2.9.3-4.3-.1-1.5-.4-2.8-1.1-3.7-2.3z"/><path d="m240 68.7c1.8-.4 3.7-.4 5.5-.2 1.8.3 3.6.7 5.3 1.6-1.9-.1-3.6-.3-5.4-.5-1.8-.3-3.6-.5-5.4-.9z"/><path d="m247.3 65.9c1-.2 2.1-.1 3.1.1s2 .5 2.9.9c1.9.7 3.6 1.6 5.5 2.3-1 .1-2-.1-3-.3s-1.9-.6-2.9-.9c-1.9-.8-3.6-1.5-5.6-2.1z"/><path d="m210.1 81.7c-.4-1.2-.3-2.4.1-3.6s1.1-2.2 2-3.1c1.7-1.8 3.8-3.1 5.9-4.3 2.1-1.3 4.2-2.4 6.4-3.5l6.4-3.4c4.3-2.2 8.6-4.4 12.9-6.5 2.2-1.1 4.4-2.1 6.6-2.9 2.3-.8 4.6-1.5 7.1-1.7-2.4.4-4.7 1.2-6.9 2.2s-4.4 2-6.5 3.2c-4.2 2.3-8.5 4.5-12.8 6.8l-6.5 3.3-3.2 1.6-3.2 1.7c-2.1 1.2-4.2 2.4-5.9 4-.9.8-1.6 1.7-2.1 2.8-.4 1-.6 2.2-.3 3.4z"/><path d="m167.9 104.2c.9-.2 1.9-.5 2.8-.3 1 .1 1.9.6 2.3 1.5.1.2.2.5.1.7-.2.3-.6.4-.9.3-.4-.1-.7-.2-1.1-.1-.3.1-.5.3-.8.5-.3.1-.6.2-.9.2-.9.1-3.7.3-4.1-.8-.6-1.4 1.7-1.8 2.6-2z" fill="#fbfbf2"/><path d="m114.6 105.8c.9.4 1.8.8 2.4 1.6.1.1.1.2.2.2.2.1.5-.1.6-.3.3-.6-.1-1.2-.5-1.7-.9-1.1-2.5-2.3-4-2.3-.6 0-.7.6-.5 1.1.3.7 1.2 1.1 1.8 1.4z" fill="#fcfcf2"/><path d="m104.2 142.9c.7 1.2 1.5 2.4 2.5 3.4s2.3 1.6 3.7 1.4c1.4-.1 2.7-.7 4.1-1.1s2.8-.8 4.2-1c2.8-.5 5.8-.6 8.6.1 2.9.7 5.4 2.2 7.9 3.5 5 2.6 10.2 5 15.6 6.5 2.7.7 5.6.9 8.3.1s5.2-2.5 6.3-5.1l.3.2c-2.8 3.7-6.3 7.1-10.7 8.9-2.2.9-4.4 1.6-6.8 1.9-2.3.4-4.8.1-7.1-.5-4.5-1.1-9-2.6-13.6-2.3-2.3.1-4.5.9-6.9 1-2.5.1-4.8-.8-7-1.7l.8-.3c-.3.9 0 2.1.5 3.1.5 1.1 1 2.2 1.6 3.3 1.2 2.1 2.4 4.3 4 6.1 1.5 1.8 3.4 3.4 5.7 4s4.7.5 7.2.5 4.9 0 7.4-.1c2.4-.1 4.9-.1 7.3-.6 1.2-.2 2.3-.6 3.4-1.1 1.1-.6 2-1.3 2.8-2.2 1.6-1.8 2.6-4.2 2.8-6.6h.1c0 2.5-.9 5-2.5 6.9-.8 1-1.8 1.8-2.9 2.4s-2.3 1-3.5 1.3c-2.5.5-4.9.7-7.4.8s-4.9.2-7.4.2c-2.4 0-5 .2-7.5-.4-2.5-.7-4.6-2.4-6.3-4.3-1.6-1.9-2.9-4.1-4.1-6.3-.6-1.1-1.2-2.2-1.7-3.4-.3-.6-.5-1.2-.6-1.9s-.1-1.4.1-2.1l.2-.6.6.3c2.1.9 4.3 1.7 6.5 1.7s4.5-.8 6.9-.9c4.8-.2 9.4 1.4 13.8 2.6 2.2.6 4.5.9 6.8.6s4.5-.9 6.7-1.8c4.3-1.7 7.9-5 10.6-8.8l1.1-1.5-.7 1.7c-1.2 2.7-3.8 4.6-6.5 5.4-2.8.9-5.8.7-8.6.1s-5.5-1.6-8.2-2.7c-2.6-1.1-5.2-2.3-7.8-3.7-2.5-1.3-5-2.8-7.7-3.5s-5.5-.6-8.3-.2c-1.4.2-2.8.5-4.1.9-1.4.3-2.7.9-4.2 1s-3-.6-3.9-1.7c-1.1-.9-1.8-2.2-2.4-3.5z"/><path d="m109.3 148.3c.3.8.6 1.6.9 2.4.4.8.7 1.6 1.1 2.3.4.8.9 1.5 1.3 2.2l1.5 2.1c-.7-.5-1.3-1.2-1.9-1.8-.6-.7-1.1-1.4-1.5-2.2s-.8-1.6-1-2.4c-.1-.9-.3-1.7-.4-2.6z"/><path d="m102.6 156.8c-.5 1.6-1.1 3.2-1.6 4.8-.6 1.6-1.2 3.2-1.8 4.7l-1.4-1c.7-.7 1.5-1.4 2.2-2 .8-.6 1.6-1.2 2.5-1.7l2.6-1.5-1.1 2.8c-.4 1-.8 2-1.3 3s-1 1.9-1.6 2.8l-1.6-1.4c1.4-1.1 2.8-2.1 4.3-3.2l2.6-1.9-1.1 3c-.7 1.8-1.4 3.7-2.2 5.5l-1-.6c1.3-1.3 2.7-2.4 4.3-3.3-1.2 1.3-2.4 2.7-3.4 4.1l-1.7 2.4.7-3c.5-1.9 1-3.8 1.5-5.7l1.5 1c-1.4 1.1-2.7 2.3-4.1 3.4l-4.7 3.7 3.1-5.2c.5-.9 1-1.8 1.4-2.7.5-.9.9-1.8 1.2-2.8l1.5 1.3c-.8.5-1.6.9-2.4 1.5-.8.5-1.5 1.1-2.2 1.7l-3.4 2.8 2-3.8 2.4-4.5c1-1.3 1.9-2.8 2.8-4.2z" fill="#d6d6ce"/><path d="m201.3 152.6c1 1.2 2.1 2.4 3.2 3.4s2.4 1.9 3.7 2.6l-1.4 1.2c-.6-1.1-1.1-2.3-1.6-3.4s-1-2.3-1.5-3.4l-.7-1.6 1.7.1c1.3.1 2.6.5 3.7 1.1l-1.2 1.3c-.6-1.2-1.1-2.5-1.4-3.8-.1-.3-.1-.7-.2-1 0-.3-.2-.8.2-1.3.2-.2.5-.3.7-.2.2 0 .4.1.5.2.3.1.6.3.9.1 0 .2-.2.3-.4.3s-.4 0-.5 0c-.3 0-.6 0-.6.1-.1.2.3.9.6 1.5.6 1.2 1.2 2.3 1.9 3.3l1.7 2.5-2.9-1.2c-1-.4-2-.6-3-.6l1-1.5c.5 1.1 1 2.3 1.5 3.4.5 1.2 1 2.3 1.4 3.5l1.1 2.9-2.5-1.7c-1.4-.9-2.6-2.1-3.6-3.4-1.1-1.4-1.9-2.8-2.3-4.4z" fill="#d6d6ce"/><path d="m210.8 128.8c1.6-.6 3.2-1.2 4.7-1.9 1.6-.6 3.1-1.3 4.6-2l.3 1.9c-1.3 0-2.6 0-4 0l-3.6-.1 3.1-1.9c.7-.4 1.4-.9 2.1-1.3l.1 1.9c-.9-.5-1.8-.9-2.6-1.4l-1.6-.9 1.4-.9c.7-.4 1.4-.6 2.2-.6l-.8 1.5c-.6-.8-1.1-1.7-1.6-2.6l-1.3-2.1 2.1.9c1 .4 1.9.8 2.9 1.2.5.2 1 .4 1.4.6.2.1.4.2.6.2s.4-.2.4-.5c.2.2 0 .6-.3.7s-.6.1-.9.1c-.5-.1-1-.2-1.6-.3-1-.2-2-.4-3.1-.6l.8-1.2c.7.8 1.4 1.6 2 2.5l1.1 1.4-1.9.1c-.4 0-.8.2-1.1.4l-.1-1.8c.9.4 1.8.8 2.7 1.3l1.8.8-1.7 1.1c-.7.4-1.4.9-2.1 1.3l-.6-2c1.4.1 2.7.1 4.1.2l4.3.4-4 1.5c-1.6.6-3.3 1.1-5 1.5-1.3.3-3 .5-4.8.6z" fill="#d6d6ce"/><path d="m80.3 182.5c-5.7.7-11.1 2.9-15.7 6.3-9.5 7.1-27.5 21.2-42.1 36.7-21 22.3 1.7 27.3 10.9 29.6 9.2 2.2 81.8 8.4 139.5 6.7 57.8-1.7 69.5-3.9 83.1-15.6 13.7-11.7 24.8-35.4 28.2-42.7 3.3-7.3-2.5-18.4-22.6-20.9s-75.2-3.9-102.8-2.8c-24.1.9-55.9-.1-78.5 2.7z" fill="#f4f4f4"/><path d="m282.7 192.4c-.1 4.4-1 8.8-2.8 13.3-4.1 10.5-10.8 21-18.3 29.4-6.2 7.1-14.4 12.6-23.6 14.9-11.3 2.8-23.8 2.7-35.4 3.4-26.6 1.5-53.2 1.5-79.8.4-26.3-1.1-52.8-.9-78.9-4.1-8.5-1-21.4-2.3-27.2-9.5-.9-1.1-1.5-2.3-1.9-3.5-4.9 13 11.2 16.6 18.6 18.4 9.2 2.2 81.8 8.4 139.5 6.7 57.8-1.7 69.5-3.9 83.1-15.6 13.7-11.7 24.8-35.4 28.2-42.7 1.5-3.4 1.1-7.4-1.5-11.1z" fill="#d1d1c7"/><path d="m80.3 182.5c-5.7.7-11.1 2.9-15.7 6.3-9.5 7.1-27.5 21.2-42.1 36.7-21 22.3 1.7 27.3 10.9 29.6 9.2 2.2 81.8 8.4 139.5 6.7 57.8-1.7 69.5-3.9 83.1-15.6 13.7-11.7 24.8-35.4 28.2-42.7 3.3-7.3-2.5-18.4-22.6-20.9s-75.2-3.9-102.8-2.8c-24.1.9-55.9-.1-78.5 2.7z" fill="none" stroke="#000" stroke-miterlimit="10" stroke-width="1.1098"/><path d="m247.8 245.7c.8-.7 1.7-1.4 2.5-2.1l2.4-2.2 2.4-2.3 2.3-2.4c2.9-3.2 5.7-6.6 8.2-10.2s4.7-7.4 6.7-11.2l1.4-3 1.3-3 1.2-3c.4-1 .7-2.1 1.1-3.1-.3 1.1-.5 2.1-.8 3.2l-1 3.1-1.2 3.1-1.3 3c-1.8 4-4 7.9-6.5 11.5s-5.3 7.1-8.5 10.2l-2.4 2.3-2.5 2.2-2.6 2c-1 .6-1.8 1.3-2.7 1.9z"/><path d="m251.2 212.9c4.4-2.2 8.5-4.7 12.4-7.7 3.9-2.9 7.4-6.3 10.6-10-2.6 4.2-6 7.8-10 10.9-3.8 2.9-8.2 5.3-13 6.8z"/><path d="m74.4 188c1.4 1.6 2.6 3.2 4 4.8 1.3 1.6 2.7 3.1 3.9 4.8-1.9-1-3.5-2.5-4.8-4.1s-2.4-3.5-3.1-5.5z"/><path d="m17 241.2c3.7 2.5 7.8 4.5 12.1 5.8 4.3 1.4 8.7 2.1 13.2 2.7s8.9.9 13.4 1.2 9 .6 13.5.8c18 1 35.9 1.8 53.9 2.2s36 .5 54 .3c9-.1 18-.3 27-.6 9-.2 18-.6 27-1-9 .6-18 1.1-26.9 1.5-9 .4-18 .7-27 .9-18 .4-36 .3-54 0-18-.4-36-1.2-53.9-2.4-4.5-.3-9-.7-13.5-1s-9-.7-13.4-1.4c-4.5-.7-8.9-1.6-13.2-3-4.5-1.3-8.6-3.4-12.2-6z"/><path d="m244.6 238.7c1.7-.6 3.3-1.4 4.5-2.6 1.2-1.3 1.9-3.1 1.5-4.8-.6-2.5-3.1-3.9-5.5-4.7-2.9-1-6.1-1.5-9.2-1.5-2.3 0-4.6.3-6.6 1.3s-3.8 2.7-4.4 4.9c-2.8 9.7 14.5 9.2 19.7 7.4z" fill="#458629"/><path d="m207.6 216.4c2.6-1.6 4.6-4.2 5.5-7.1.3-.9.5-1.9 1.1-2.6s1.7-1.2 2.5-.6c.3.2.5.5.7.8.8.9 2.3.9 3.4.4s2-1.4 3-2.1c1.3-1 2.9-1.9 4.5-1.9s3.5.9 4 2.4c.3.8.4 2 1.3 2.2.7.1 1.3-.5 2-.3.9.1 1.1 1.3 1.5 2.1.7 1.5 2.4 2.2 4.1 2.1 1.6-.1 3.1-.7 4.6-1.4 1-.4 2.1-.9 3.1-.7s2.2 1 2.1 2.1c0 .8-.7 1.5-1.4 2s-1.5.9-2 1.6-.5 1.8.2 2.2c.4.2.9.2 1.4.3s1 .4.9.9c0 .3-.3.6-.6.8-1.6 1.2-3.2 2.5-4.8 3.7 1.2.6 2.4 1.3 3.7 1.9-1 2-3 3.3-5.1 4s-4.4.7-6.6.4c-4.8-.5-9.3-2.2-14.1-2.9-7-1-14 .1-21 .7-3.2.3-7.7-1.5-4.9-5.3 2.4-3.6 7.5-3.7 10.9-5.7z" fill="#75b020"/><path d="m164.6 203.4c1.3.1 2.5.8 3.7 1.5-.6-1.7.1-3.9 1.7-4.8s3.8-.4 5 1c.7-1 .9-2.3 1.4-3.4.4-1.2 1.2-2.3 2.4-2.5 1.5-.3 2.8 1.1 4 2.1s3.1 1.8 4.1.6c.6 1 .9 2.2.7 3.3 1.3.7 2.7-.7 3.3-2s1.2-2.9 2.6-3.2c1.3-.3 2.5.9 2.9 2.2.3 1.3 0 2.6-.4 3.9 1.2.1 2.5.1 3.7.2-.9 2.2-1.9 4.3-3.2 6.4-1.4 2.2-3.1 4.4-5.4 5.6-2.6 1.4-5.8 1.5-8.3 3.2-1.6 1.1-2.8 3-4.7 3.7-2.3.9-4.9-.2-7.1-1.3-3.7-1.8-7.6-4-8.6-8.3-.7-2.9-2.8-8.6 2.2-8.2z" fill="#458629"/><path d="m176.2 216.9c.2-1 1.1-2 2.1-1.7.7-1.4-2.8-2.3-2.2-3.9.3-.9 1.7-.7 2.6-.2-.5-2.2 1-4.4 3-5.4s4.3-1.2 6.5-1.3c0 .7-.3 1.3-.8 1.7 1.3.7 2.5 1.3 3.8 2 .9.5 2 1 3 .7 1.9-.6 2-3.2 3.3-4.6 1.1-1.1 2.7-1.3 4.2-1.4.6 0 1.2-.1 1.7.3.7.6.4 1.8.3 2.7-.2 2.7 2.9 5.1 5.4 4.2-1.9 3.8-5.3 6.8-9.3 8.3-.9.3-2 1-1.7 1.9.1.3.4.5.7.7 4 2.5 8.9 3.3 13.4 2.3.8-.2 1.8-.6 2-1.4.2-.7-.2-1.4-.2-2.2 0-1.2 1.1-2.1 2.2-2.4s2.3 0 3.4.2c2.2.5 4.3 1 6.5 1.5 2 .4 4.4 1.4 4.5 3.4.1 1.5-1.2 2.7-2.2 3.8-1.5 1.7-2.5 3.8-2.8 6.1-.2 1.7-.2 3.7-1.3 4.9-1.3 1.4-3.6 1.3-5.6 1-6.2-.9-12.4-1.7-18.6-2.6-1 2.5 2.2 5.2 1.4 7.8-.4 1.2-1.6 2-2.9 2.3s-2.6 0-3.8-.2c-3.2-.5-6.7-1.3-8.4-4.1-.9 2-2.6 3.8-4.7 4.5s-4.7.1-6-1.7c-.7-1-1.1-2.4-2.1-3.1-1.9-1.5-4.8-.1-7.1-1-1.3-.5-2.1-1.8-2.4-3.2s-.1-2.8.2-4.1c.8-2.9 2.3-5.6 4.5-7.7.9-.9 2-1.6 3.2-2s2.3.4 3.3.3c2.7-.6.5-4.9.9-6.4z" fill="#8bc72a"/><path d="m124.6 212.7c.2-2.4-.5-4.9-2-6.9 1.2-.1 2.3-.9 2.8-2s.4-2.4-.3-3.4c-.6-.8-1.4-1.3-2-2.1s-.9-2-.1-2.7 2-.3 2.9.2c1.7.9 3.5 1.8 5.2 2.7-.6-.8.6-1.8 1.5-1.6s1.5 1.1 2 1.9 1.2 1.6 2.2 1.7c1.1-1.8 2.7-3.9 4.9-3.5 2.1.4 2.9 3.1 2.2 5-.8 1.9-2.6 3.2-4.4 4.4-2.3 1.5-4.6 3-6.9 4.5-1.8 1.1-3.7 2.3-5.8 2.2-.7 0-1.4-.3-1.9-.8s-.5-1.4 0-1.9" fill="#458629"/><path d="m137.6 205.1c2.4-.7 4.4-2.5 6.4-4s4.3-3 6.9-2.8c2.5.2 5 2.6 4.2 5-.5 1.6-2.1 2.7-2.1 4.3.1 1.4 1.4 2.4 2.8 2.5s2.7-.5 3.9-1.3c1.1-.7 2.2-1.6 3.5-1.9 1.4-.4 2.9-.1 4 .8s1.7 2.3 1.5 3.7c-.4 2.6-3.1 4-5.1 5.6-3.7 3-5.8 7.8-5.5 12.5.1 1.8.6 3.8-.4 5.3-.9 1.5-2.8 1.9-4.6 2.1-5.6.4-11.2-1.9-15.6-5.5s-10-10.1-11.1-15.9c-.5-2.5.9-5.7 2.5-7.6 2.4-2.5 5.7-1.9 8.7-2.8z" fill="#6ba628"/><path d="m57.1 210c-1-1.9-1.1-4.4.4-5.9 1.3-1.4 3.5-1.6 5.3-1.2 1.9.4 3.6 1.3 5.4 1.9s3.9.7 5.5-.3c2-1.2 3.1-4 5.4-4.1 2-.1 3.4 2 5 3.3 2.5 2 6 1.9 9.2 1.8 1.9-1.7-.3-5.5 1.6-7.2 1-.9 2.7-.6 3.8.3s1.7 2.2 2.4 3.3c1.3 2 3 3.8 4.1 6 1.5 3 1.5 6.5 1.4 9.9 0 1.7-.1 3.5-1.2 4.7-.9 1-2.3 1.4-3.6 1.7-6.9 1.6-14 2.3-21 2.1-4.3-.2-8.8-.7-12.3-3.2-2.7-1.9-4.4-4.7-6.3-7.3-1.5-2.2-3.9-3.4-5.1-5.8z" fill="#6da428" opacity=".43"/><path d="m49.6 226.4c-.7-.5-1.5-1.1-1.9-1.9-.8-1.5.1-3.5 1.5-4.5s3.2-1.3 4.9-1.5c-1.2-1.8-2.5-4.3-1.3-6.1.9-1.4 2.9-1.7 4.6-1.6 2.7.1 5.4.7 7.8 1.8 1.3.6 2.7 1.4 4.1 1 .9-.2 1.7-.9 2.6-1.4.9-.4 2.1-.5 2.7.3.9-1.8 2.2-3.3 4-4.2 1.8-.8 4-.8 5.6.3s2.4 3.4 1.6 5.2c-.4.8-1.1 1.8-.5 2.5s1.8.1 2.4-.6 1.2-1.6 2.2-1.6c1.2.1 1.6 1.7 1.5 2.8-.4 8.3-5.8 16.1-13.4 19.5-2.6 1.2-5.6 1.8-8.4 1.5-3.4-.4-6.2-2.6-9.1-4.3-3.8-2.2-7.3-4.8-10.9-7.2z" fill="#7bb71f"/><path d="m98.9 224.1c.6-1.9 3.4-2.3 4-4.2.5-1.6-.7-3.1-1.9-4.2s-2.5-2.5-2.2-4.2c.4-2 2.8-2.6 4.2-4 1-1 1.5-2.4 2.5-3.4 1.5-1.4 3.8-1.6 5.8-1.4 4.5.5 8.7 2.4 12.8 4.3.6.3 1.2.6 1.6 1.2.4.7.2 1.6.2 2.4-.2 3.2 2.1 6.1 4.7 8s5.6 3.3 7.9 5.6c1.7 1.7 3.2 4 5.7 4.5 1 .2 2.1 0 3.2 0s2.2.3 2.9 1.1c.6.8.7 2 1.7 2.2.6.1 1.2-.3 1.8-.3.9 0 1.7.8 1.9 1.7s0 1.8-.2 2.7c-3.4-.2-6.9-.2-10.4-.1-5.5.2-11.1.7-15.8 3.5-1.8 1.1-3.6 2.5-5.7 3s-4.3-.2-6.4-.8c-3-.9-6-1.8-9-2.7-2-.6-5.2-.9-6.6-2.6-1-1.2-.8-3-.9-4.5-.1-1.3-.2-2.5-.7-3.8-.6-1.3-1.6-2.6-1.1-4z" fill="#8ec832"/><path d="m128.9 240.9c5.9-3.8 12.8-7.7 19.6-6 4 1 7.4 3.9 11.5 4.1 4.3.2 9.1-2.4 12.5.3 1.3 1.1 2 2.7 3 4.2s2.4 2.8 4.1 2.6c2.2-.2 3.8-2.9 5.9-2.4 1.7.4 2.7 2.7 4.4 2.6 2-.2 2-3.2 3.5-4.6 1.4-1.4 3.9-.9 5.5.2 1.7 1.1 3.1 2.6 5.1 3.1 1.6.4 3.4 0 5-.4 2.9-.7 5.8-1.5 8.7-2.2 1.6-.4 3.3-.9 4.2-2.2s1-3 1.2-4.5c.4-2.9 1.7-5.6 3.6-7.9.8-.9 1.8-1.8 2.9-2.1 1.2-.3 2.6.1 3.2 1.2.7 1.3-.1 2.9-.2 4.4-.2 2.9 2.6 5.3 5.5 5.8s5.8-.5 8.5-1.4c-1.1 4.4-6 6.6-10.4 7.9-9.6 2.8-19.5 4.3-29.4 5.4-24.7 2.8-49.7 3.2-74.5 1.3-6.8-.5-14.3-.5-20.9-2.2.1-.5 7.2-1.5 8.5-2 3-1.5 6-3.3 9-5.2z" fill="#add251"/><path d="m105.9 229.7c-.7-2.4-.2-5 .8-7.2s2.7-4.2 4.4-5.9c1.2-1.3 2.5-2.5 4-3.3s4.8-1.7 6.5-1.2c0 0-11.1 3.5-13.2 9.4-2.1 5.8-.9 7.8-.9 7.8z" fill="#87405a"/><path d="m106.9 228.9c-.1-3.6 1-7.3 3.1-10.2 2.1-3 5.2-5.2 8.6-6.3 1.4-.4 3-.7 4.1.2-3.5 1.2-7 2.9-9.1 5.9-2.1 2.9-2.6 6.7-4.3 10-.2.5-.6.9-1.1 1s-1-.4-1.1-.9 0-1.1.2-1.6" fill="#ee9dc0"/><path d="m112.6 218.5c2.5-3.1 6.1-5.3 9.9-6.2-1.3.9-2.7 1.7-4 2.6-1.6 1.1-3.3 2.1-4.5 3.7-1.2 1.7-1.8 3.8-2.4 5.8-.6 1.7-1.4 4.1-3.1 5-.7-1.2.6-4.4 1-5.6.8-1.9 1.9-3.7 3.1-5.3z" fill="#eadaef"/><path d="m147.3 210.5 2 3.7s1 4-3.3 5.9-7.5 2.1-7.5 2.1l-5.2-1.8 4.2-6.8z" fill="#0e913d"/><path d="m133.1 207.2c2.3-.4 4.8-.6 7.2-.2s4.8 1.3 6.5 2.9c.4.4.7.8.9 1.2s.2.8.2 1.3c-.1 2.2-1.7 4-3.7 5.2-1.8 1.2-3.9 2-6.1 2.4-1 .2-2.1.4-3.2.3-2.5-.2-4.7-1.5-6.7-2.9-1.2-.9-2.5-2-3-3.2-.4-1-.6-2.2-.3-3.2.2-.8.9-1.2 1.6-1.7 1.9-1.2 4.3-1.7 6.6-2.1z" fill="#28a638"/><path d="m140.2 207.8c2.3.2 4.9.8 6.1 2.6s.2 3.8-1.2 5.3c-3.6 3.7-10.3 4.9-15.9 2.9-1.8-.6-3.6-1.6-4.5-3.1-4.8-7 10.9-8.1 15.5-7.7z" fill="#b1d98d"/><path d="m132.2 210.6c.5 0 1 .1 1.5 0 .7-.1 1.2-.6 1.9-.9 1.5-.7 3.3-.3 5 0 .5.1 1.1.3 1.5.6.2.2.4.4.5.6.3.4.6.9.9 1.3.2.3.4.6.4.9 0 .4-.4.8-.8 1s-.9.3-1.3.5c-1 .5-1.6 1.5-2.6 2-1.5.7-3.5.2-5.2.5-.7.1-1.4.4-2.2.5-1.1.1-2.3-.4-3.3-.9-.7-.4-1.5-.9-1.8-1.5-.3-.7-.1-1.2.4-1.7.5-.4.7-.9 1.2-1.3.9-1 2.4-1.6 3.9-1.6z" fill="#cce299"/><path d="m131.6 212.1c-.5 0-1 0-1.5 0-.2 0-.5 0-.7.1-.3.2-.2.7.1.9s.8.2 1.2 0c.2-.1.3-.2.5-.2s.3.1.4.3c.1.1 0 .3-.1.4.5-.1.8-.5.9-.9 0-.1 0-.2 0-.3-.2-.3-.6-.2-.9-.3" fill="#e3eac5"/><path d="m134.7 212.6c-.6.3-1.1.5-1.6.8-.1.1-.3.2-.4.3s0 .3.1.4.3 0 .4 0c.5-.1 1-.1 1.5-.1h.3s.1-.1.1-.1c.2-.2.3-.5.2-.7-.1-.3-.5-.5-.7-.4" fill="#e3eac5"/><path d="m138.1 211.4c.2.1.4.3.4.4-.5.1-.9.5-1.1.9-.1.3-.1.6.2.8.2.1.4.1.5 0 .6-.1 1.2-.4 1.7-.7.3-.2.6-.5.4-.8-.3-.5-.7-.3-1.2-.4-.8-.1-1.4-.7-2.1-1.1-.5-.3-.9-.6-1.1 0-.1 1.1 1.7.7 2.3.9z" fill="#e3eac5"/><path d="m134.5 210.4c-.5.4-.9.8-1.4 1.3.4.2 1 .4 1.3.1.1-.1.1-.2.2-.3.1-.3.2-.5.3-.8-.2-.1-.5-.1-.7-.2" fill="#e3eac5"/><path d="m137.9 214.1c-.6.2-1.1.4-1.7.6.2.3.5.5.8.6.1 0 .1.1.2 0 .1 0 .2-.1.3-.2.2-.2.6-.4.9-.4.2 0 .4-.1.4-.2 0 0 0-.1-.1-.1-.2-.3-.6-.4-1-.5" fill="#e3eac5"/><path d="m135.3 215c-.5-.1-.9-.3-1.4-.4s-1-.1-1.4.2c0 0-.1.1-.1.1 0 .1 0 .1.1.2.2.3.5.4.9.5.3.1.7.1 1 .3.2.1.4.2.5.2.3 0 .4-.2.5-.4.1-.1.1-.3.1-.4-.1-.2-.3-.3-.4-.2" fill="#e3eac5"/><path d="m131.3 214.5c-.4.3-.8.7-1.1 1.1.5.2 1 .3 1.5.2.1 0 .2 0 .2-.1.1-.1 0-.2-.1-.3-.2-.4-.4-.7-.7-1.1" fill="#e3eac5"/><path d="m141.9 220.4c4.8-.4 10 1.3 12.9 5.2-3.5-2-7.5-3-11.5-2.6-4 .3-7.9 1.9-10.9 4.5-.6.5-1.1 1-1.8 1.2-1.5.5-2.4-1-2-2.4.3-1.3 2-1.9 3-2.5 3.1-1.7 6.6-3.1 10.3-3.4z" fill="#87405a"/><path d="m147.9 221.9c2.6.6 5.3 1.8 6.7 4-3.5-2.1-7.7-2.9-11.7-2.4-2.5.3-5 1.2-7.2 2.5-1.1.7-2.2 1.5-3.2 2.3-.6.5-1.9 2-2.8 1.2-1.4-1.2 2-3.8 2.8-4.3 2.1-1.5 4.4-2.5 6.9-3.1 2.9-.7 5.8-.8 8.5-.2z" fill="#eadaef"/><path d="m143 222.5c4.4-.4 9.1.9 12.1 4.1-3.2-2.1-7-3.1-10.7-2.8-3.8.3-7.4 1.8-10.2 4.3-.4.4-.8.8-1.4 1-.5.3-1.2.3-1.6 0-2.3-1.4 3.1-3.9 4-4.3 2.4-1.2 5.1-2.1 7.8-2.3z" fill="#ee9dc0"/><path d="m129.4 224 5.4 4.8s1.4 6.7-3.9 11.7c-5.3 4.9-9.6 6.6-9.6 6.6l-7.7-.8 3.4-13.1z" fill="#0e913d"/><path d="m108.9 224.4c3.1-1.6 6.3-2.9 9.8-3.3 3.4-.4 7.1.2 9.9 2.2.6.5 1.2 1 1.6 1.6s.6 1.3.7 2c.6 3.6-1 7.3-3.2 10.2-2.1 2.7-4.7 4.9-7.6 6.6-1.4.8-2.8 1.5-4.3 1.8-3.4.7-7-.6-10.1-2.1-2-1-4.1-2.2-5.2-4.2-.8-1.4-1.5-3.5-1.6-5.2 0-1.4.8-2.4 1.7-3.5 2.1-2.6 5.2-4.5 8.3-6.1z" fill="#28a638"/><path d="m118.8 222.4c3.2-.6 7-.7 9.2 1.8s1.6 6.3.2 9.3c-3.6 7.6-12.4 12.5-20.8 11.5-2.7-.3-5.4-1.2-7.2-3.2-9-9.8 12.1-18.1 18.6-19.4z" fill="#b1d98d"/><path d="m108.8 230.5c.7-.2 1.4-.3 2-.6.9-.5 1.5-1.5 2.3-2.2 1.8-1.7 4.4-2 6.9-2 .8 0 1.6 0 2.3.4.4.2.6.5.9.8.6.6 1.1 1.2 1.7 1.8.4.4.8.8.9 1.4.1.7-.3 1.4-.8 2s-1.1.9-1.7 1.4c-1.2 1.3-1.7 3.1-2.9 4.4-1.8 1.8-4.7 1.8-6.9 3-1 .5-1.8 1.3-2.8 1.7-1.5.6-3.3.3-4.9-.2-1.1-.4-2.3-.9-3-1.8-.7-1-.5-2 0-3 .5-.9.7-1.8 1.1-2.7.9-2.1 2.7-3.8 4.9-4.4z" fill="#cce299"/><path d="m108.4 233.2c-.7.2-1.4.4-2.1.7-.3.1-.7.2-.9.5-.4.5-.1 1.2.5 1.4.5.2 1.2 0 1.6-.5.2-.2.3-.5.6-.5.2-.1.5.1.6.3s.1.5 0 .7c.6-.4 1-1.2 1-1.9 0-.2 0-.4-.1-.5-.3-.4-.9-.1-1.4-.2" fill="#e3eac5"/><path d="m112.9 232.8c-.7.7-1.3 1.3-1.9 2.1-.2.2-.3.4-.4.7 0 .3.1.6.3.6.2.1.4-.1.6-.2.6-.3 1.3-.6 2-.8.1 0 .3-.1.4-.2s.1-.1.1-.2c.2-.4.3-.9.1-1.3s-.8-.6-1.1-.3" fill="#e3eac5"/><path d="m117.1 229.3c.3 0 .7.3.7.6-.7.4-1.1 1.2-1.2 2 0 .5.1 1 .6 1.2.3.1.5 0 .8-.2.8-.5 1.5-1.2 2.1-1.9.4-.5.7-1 .3-1.6-.5-.7-1.1-.2-1.8-.1-1.2.1-2.1-.6-3.2-1-.7-.3-1.5-.6-1.5.5 0 1.8 2.3.5 3.2.5z" fill="#e3eac5"/><path d="m111.9 229.2c-.5.9-1 1.8-1.4 2.8.7.1 1.5.2 1.8-.4.1-.2.1-.4.2-.6.1-.5.1-.9.2-1.4-.3 0-.7 0-1 0" fill="#e3eac5"/><path d="m117.7 233.9c-.7.6-1.4 1.2-2.1 1.8.4.4.8.6 1.4.7h.3c.2-.1.3-.3.3-.4.2-.5.6-.8 1.1-1 .2-.1.5-.3.4-.5 0-.1-.1-.1-.1-.2-.4-.3-1-.5-1.5-.4" fill="#e3eac5"/><path d="m114.5 236.5c-.7.1-1.4-.1-2.1-.1s-1.5.2-1.8.8c0 .1-.1.2-.1.3s.1.2.1.3c.3.4.9.5 1.4.5s1-.1 1.5 0c.3.1.6.2.8.1.4-.1.5-.6.6-.9 0-.3.1-.5-.1-.8-.1-.2-.4-.4-.7-.2" fill="#e3eac5"/><path d="m108.8 237.3c-.5.7-.9 1.5-1.2 2.3.7.1 1.5 0 2.2-.3.1-.1.3-.1.3-.3.1-.2-.1-.3-.2-.5-.4-.5-.9-1.1-1.3-1.6" fill="#e3eac5"/><path d="m199.1 227.7-4.1 3.6s-1 5.1 2.9 8.8 7.2 5 7.2 5l5.8-.6-2.6-9.9z" fill="#0e913d"/><path d="m214.6 228c-2.3-1.2-4.8-2.2-7.4-2.5s-5.4.1-7.5 1.6c-.5.3-.9.7-1.2 1.2s-.4 1-.5 1.5c-.4 2.7.8 5.5 2.5 7.7 1.6 2 3.5 3.7 5.7 5 1 .6 2.1 1.1 3.3 1.4 2.6.5 5.3-.4 7.7-1.6 1.5-.8 3.1-1.7 3.9-3.2.6-1.1 1.2-2.7 1.2-3.9 0-1-.6-1.8-1.3-2.6-1.7-2-4-3.4-6.4-4.6z" fill="#28a638"/><path d="m207.2 226.5c-2.4-.5-5.3-.5-7 1.3-1.6 1.9-1.2 4.8-.2 7 2.8 5.8 9.4 9.4 15.7 8.7 2-.2 4.1-.9 5.5-2.4 6.8-7.3-9.1-13.6-14-14.6z" fill="#b1d98d"/><path d="m214.7 232.6c-.5-.1-1-.2-1.5-.5-.7-.4-1.1-1.1-1.7-1.7-1.3-1.3-3.4-1.5-5.2-1.5-.6 0-1.2 0-1.7.3-.3.2-.5.4-.7.6-.4.5-.9.9-1.3 1.4-.3.3-.6.6-.7 1.1s.2 1.1.6 1.5.9.7 1.3 1.1c.9 1 1.3 2.4 2.2 3.3 1.4 1.4 3.6 1.3 5.2 2.3.7.4 1.4 1 2.1 1.3 1.2.5 2.5.2 3.7-.1.9-.3 1.7-.7 2.3-1.4.5-.7.4-1.5 0-2.2s-.5-1.3-.8-2.1c-.8-1.7-2.2-3-3.8-3.4z" fill="#cce299"/><path d="m215 234.6c.5.2 1.1.3 1.6.5.2.1.5.2.7.4.3.4 0 .9-.4 1.1s-.9 0-1.2-.4c-.1-.2-.3-.4-.4-.4-.2-.1-.4.1-.5.2-.1.2-.1.4 0 .5-.5-.3-.7-.9-.7-1.4 0-.1 0-.3.1-.4.2-.3.7-.1 1-.1" fill="#e3eac5"/><path d="m211.6 234.3c.5.5 1 1 1.5 1.6.1.2.3.3.3.5s-.1.4-.3.5c-.2 0-.3 0-.5-.1-.5-.3-1-.5-1.5-.6-.1 0-.2 0-.3-.1 0 0-.1-.1-.1-.2-.1-.3-.2-.7 0-1s.6-.5.9-.2" fill="#e3eac5"/><path d="m208.4 231.7c-.2 0-.5.2-.5.4.5.3.9.9.9 1.5 0 .4-.1.8-.4.9-.2 0-.4 0-.6-.1-.6-.4-1.1-.9-1.6-1.5-.3-.3-.5-.8-.2-1.2.4-.6.8-.2 1.3-.1.9.1 1.6-.4 2.4-.7.5-.2 1.1-.5 1.1.4.1 1.4-1.7.4-2.4.4z" fill="#e3eac5"/><path d="m212.4 231.6c.4.7.8 1.4 1.1 2.1-.5.1-1.1.1-1.4-.3-.1-.1-.1-.3-.1-.5 0-.4-.1-.7-.1-1.1h.8" fill="#e3eac5"/><path d="m207.9 235.2c.5.4 1.1.9 1.6 1.3-.3.3-.6.5-1 .5-.1 0-.2 0-.2 0-.1 0-.2-.2-.3-.3-.2-.3-.5-.6-.8-.8-.2-.1-.4-.2-.3-.4 0-.1.1-.1.1-.1.3-.2.7-.4 1.1-.3" fill="#e3eac5"/><path d="m210.4 237.2c.5.1 1.1 0 1.6 0s1.1.2 1.4.6c0 .1.1.1.1.2s0 .2-.1.2c-.2.3-.7.4-1 .4s-.8-.1-1.1 0c-.2 0-.4.1-.6.1-.3-.1-.4-.4-.4-.7 0-.2 0-.4 0-.6s.3-.3.5-.2" fill="#e3eac5"/><path d="m214.7 237.7c.4.5.7 1.1.9 1.7-.6.1-1.1 0-1.6-.2-.1 0-.2-.1-.2-.2s.1-.3.1-.4c.3-.4.7-.8 1-1.2" fill="#e3eac5"/><path d="m217.9 223.9c-2.6-2.2-6.3-3.3-9.6-2.2 2.8.2 5.6 1.3 7.7 3.2 2.2 1.8 3.8 4.3 4.5 7 .1.5.2 1 .6 1.4.7.9 1.8.4 2.1-.6.3-.9-.4-1.9-.7-2.7-1.1-2.2-2.6-4.4-4.6-6.1z" fill="#87405a"/><path d="m213.8 222.3c-1.7-.7-3.8-1.1-5.5-.4 2.9.2 5.6 1.4 7.8 3.3 1.4 1.2 2.4 2.7 3.2 4.4.4.8.7 1.7.9 2.6.1.6.3 1.9 1.1 1.8 1.3-.2.3-3 .1-3.6-.6-1.7-1.6-3.3-2.7-4.6-1.5-1.5-3.1-2.7-4.9-3.5z" fill="#eadaef"/><path d="m216.4 224.7c-2.4-2-5.6-3.2-8.7-2.6 2.7.1 5.3 1.1 7.4 2.7 2.1 1.7 3.5 4.1 4.2 6.7.1.4.2.8.4 1.2s.5.7.9.7c1.9.1-.2-3.5-.5-4.1-1.1-1.8-2.3-3.4-3.7-4.6z" fill="#ee9dc0"/><path d="m222.6 217.4c-4.2-1.8-9.3-1.9-13.1.8 3.7-.8 7.6-.3 11.1 1.2s6.4 4.1 8.4 7.4c.4.6.7 1.2 1.3 1.6 1.2.9 2.4-.2 2.5-1.5.1-1.2-1.2-2.3-1.9-3.1-2.4-2.7-5.1-5.1-8.3-6.4z" fill="#87405a"/><path d="m216.7 216.9c-2.5-.3-5.3 0-7.3 1.5 3.7-.8 7.7-.3 11.2 1.4 2.2 1 4.1 2.6 5.7 4.4.8.9 1.5 2 2.1 3 .4.7 1 2.4 2.1 1.9 1.6-.7-.7-4-1.2-4.7-1.4-1.9-3.2-3.6-5.2-4.9-2.2-1.3-4.7-2.3-7.4-2.6z" fill="#eadaef"/><path d="m220.9 218.9c-3.8-1.7-8.4-2-12.1-.1 3.4-.9 7.2-.6 10.4.8 3.3 1.4 6.1 3.9 7.8 7 .3.5.5 1 .9 1.3.4.4.9.6 1.5.5 2.5-.6-1.6-4.4-2.2-5.1-1.8-1.8-3.9-3.4-6.3-4.4z" fill="#ee9dc0"/><path d="m196.9 208.7c2.2 1.1 4.9 1 7.2.3s4.5-2 6.6-3.4c1.4-1 2.8-2.1 3.9-3.4 1.1-1.4 2.4-4.5 2.2-6.2 0 0-5.2 10.4-11.3 11.5s-7.8-.3-7.8-.3z" fill="#87405a"/><path d="m197.8 207.9c3.6.7 7.4.1 10.6-1.5 3.3-1.6 6-4.3 7.6-7.5.6-1.3 1.1-2.8.4-4.1-1.8 3.2-4 6.4-7.2 8.1-3.2 1.6-7.1 1.6-10.5 2.7-.5.2-1 .4-1.2.9s.3 1.1.8 1.3 1.1.2 1.6.1" fill="#ee9dc0"/><path d="m209 203.8c3.4-2 6.2-5.2 7.7-8.9-1.1 1.2-2.1 2.4-3.2 3.5-1.3 1.5-2.6 2.9-4.4 3.8-1.9 1-4 1.1-6.1 1.5-1.7.3-4.3.8-5.4 2.3 1 .9 4.5.1 5.7-.1 2-.4 3.9-1.1 5.7-2.1z" fill="#eadaef"/><path d="m64.1 223.7c-2.3.3-4.6.8-6.7 1.8s-4 2.6-5.1 4.6c-.5-.5-.6-1.4-.4-2.1.3-.7.8-1.3 1.3-1.8 1.8-1.6 4.1-2.7 6.5-3.4s4.9-.9 7.3-1.1c2.3-.1 4.7-.2 7 0 .6 0 1.3.1 1.8.4.6.3 1 .9 1 1.5-.1 1.2-1.1 1-1.8.7-1.1-.4-2.4-.5-3.6-.7-2.3-.1-4.8-.1-7.3.1z" fill="#87405a"/><path d="m61.1 223.9c3.9-1.7 8.3-1.9 12.5-2 .7 0 1.5 0 2.2.3.3.2.9.9.6 1.3s-1 .1-1.4 0c-1.5-.3-3.1-.4-4.7-.5-3 0-6.1.3-9.2.9z" fill="#eadaef"/><path d="m61.5 222.5c3.8-1.2 7.8-1.4 11.8-1.3 1.2 0 2.3.1 3.5.4.3.1.6.2.7.5s-.2.7-.5.8-.7 0-1-.1c-6.4-1.4-13.3-.1-18.9 3.2-1.6.9-2.8 2.2-4.3 3.2.1-1.5 2.4-3.2 3.5-4.1 1.5-1.1 3.3-2 5.2-2.6z" fill="#ee9dc0"/><path d="m71.6 207.3c2.1-.9 4.1-2.1 6.3-2.7s4.9-.2 6.3 1.7c.5.7.8 1.5 1.4 2 .6.6 1.7.7 2.2 0 .3-.5.1-1.2.1-1.8-.1-1.1.6-2.2 1.6-2.9.9-.7 2.1-.9 3.2-1 3.1-.3 6.4.8 8.8 2.9.5.5 1.1 1 1.7 1.2.7.2 1.6 0 1.8-.7s-.5-1.4-1.1-1.9c-2.2-1.6-4.6-2.9-7.2-3.5-2.6-.5-5.5-.2-7.7 1.2-.9.6-1.6 1.3-2.6 1.6-1.6.5-3.2-.2-4.8-.6-2.4-.6-5-.4-7.3.5-1 .4-1.9 1-3 1.3-.8.2-1.3.4-1.6 1.3-.8 1.7.9 1.8 1.9 1.4z" fill="#ff7d73"/><path d="m76.5 201.5c2.9-.6 6-.1 8.7 1.3 2.2-2.1 5.2-3.5 8.3-3.7s6.2.6 8.7 2.4c1.3.9 2.5 2.2 2.8 3.8-2.1-1.3-4.2-2.6-6.5-3.5s-4.8-1.3-7.2-.7c-2.4.5-4.6 2.1-5.5 4.4-2.2-2-5.1-3-8-2.9s-5.8 1.4-7.8 3.6c-.2.2-.1.8-.5.4-.3-.3-.4-.7-.2-1 .6-.7 1.3-1.3 2.1-1.8 1.5-1.2 3.3-2 5.1-2.3z" fill="#c5181b"/><path d="m74.9 204.2c1.8-.8 3.8-1.2 5.7-.9s3.8 1.5 4.6 3.3c.3.6.7 1.3 1.3 1.2.4-.1.6-.5.7-.8s0-.8-.1-1.1c0-1.1.6-2.2 1.5-2.9s2-1.1 3.1-1.3c3.9-.7 8.1.8 10.7 3.7.5.6 1.3 1.3 2 1.1.6-.2.8-1 .6-1.7-.2-.6-.7-1.1-1.3-1.5-2.7-2-6-3.5-9.3-3.5-3.4 0-6.9 1.5-8.7 4.3-4.6-2.7-10.6-2.5-15.2.2-.6.4-1.2.8-1.4 1.5-.1.4 0 1.2.5 1.3s1.1-.6 1.5-.8c1.3-.8 2.5-1.5 3.8-2.1z" fill="#ec2b0f"/><path d="m134.8 202.2c-.1-1.3.4-2.6 1.2-3.7 2.1-2.7 5.6-3.7 9-4.3 3-.6 6-1 9-.6s6 1.6 7.9 3.9c.3.3.5.7.9.9s.9.2 1.4.2c3.8.2 7.4 2.3 9.4 5.6.3.5.6 1.1.6 1.7s-.3 1.2-.8 1.5c-.8-2.1-2.3-3.9-4.2-5s-4.2-1.5-6.4-1.2c-.5.1-1.1.2-1.5-.2-.4-.3-.4-.9-.5-1.4-.2-1.1-1-2-1.9-2.6s-2-.9-3.1-1.1c-3.7-.7-7.6-.7-11.3.2-2.2.5-4.3 1.3-5.9 3-.9 1-1.6 2.3-1.7 3.6v1c0 .3.2.7.2 1-.1.9-1.1 0-1.3-.3-.6-.7-.9-1.5-1-2.2z" fill="#bc1200"/><path d="m139 201.7c.6-.9 1.5-1.6 2.4-2.2 4-2.6 9.1-3.1 13.8-2.3 1.1.2 2.3.5 3.3 1.1s1.8 1.6 1.9 2.8c0 .5 0 1.1.4 1.5.5.4 1.3 0 1.9-.3 1.5-.7 3.4-.2 4.7.8 1.4.9 2.4 2.3 3.6 3.5.4.4.8.8 1.3.9s1.1-.1 1.3-.6c.1-.4-.2-.9-.4-1.3-1.4-1.9-3-3.6-5.1-4.6s-4.7-1.2-6.6 0c-.3-1.9-1.6-3.4-3.3-4.4-1.6-.9-3.5-1.3-5.4-1.5-3.3-.3-6.7 0-9.9.9-1.4.4-2.9 1-4.1 2s-2.1 2.3-2.3 3.8c-.1.8.2 2.7 1.2 2.9.6.1.6-.8.6-1.2.1-.6.4-1.3.7-1.8z" fill="#ff8b7b"/><path d="m137.7 200.7c.6-1.2 1.7-2 2.8-2.6 4.1-2.3 9.1-3.1 13.8-2.4 1.4.2 2.9.5 4 1.4 1.2.8 2 2.3 1.7 3.7-.1.6-.4 1.5.2 1.8.4.2.9.1 1.2-.3.3-.3.5-.7.8-1 .9-.9 2.3-.9 3.6-.6 2.7.7 5.1 2.8 6.1 5.4.2.5.4 1.1.9 1.3.6.2 1.3-.4 1.4-1.1s-.3-1.3-.7-1.8c-2.5-3.4-7.1-5.2-11.3-4.5.2-.8-.2-1.7-.7-2.3-.6-.6-1.3-1-2.1-1.3-5.3-2.3-11.4-2.4-17-.9-2.1.6-4.2 1.4-5.6 3s-2 4.2-.8 6c.4.6 1 1.1 1.6 1 .4 0 1-.4 1-.9 0-.4-.5-.5-.7-.8-.7-.9-.6-2.2-.2-3.1z" fill="#ec2b0f"/><path d="m177.8 227.8c-.8.1-1.2 1-1.4 1.8-.5 2.4-.2 5.1 1.2 7.1s3.9 3.4 6.3 3.2c-.2 2 .7 4.2 2.4 5.4s4 1.5 5.9.6c-1.6-1.6-3.2-1.4-4.8-3-1.8-1.7-3.6-5.2-5.7-6.4-1.2-.6-2.4-1.1-3.3-2-1.1-1.1-1.4-2.9-.8-4.4.1-.3.3-.7.6-.8s.8.2 1 0c.5-.6-.9-1.5-1.4-1.5z" fill="#bc1200"/><path d="m178.7 228c-.7-.2-1.5.4-1.8 1.1s-.2 1.5 0 2.2c.3 2 .9 4.1 2.2 5.7s3.3 2.8 5.3 2.5c0 1.9.8 3.7 2.2 4.9s3.4 1.7 5.2 1.4c-1.6-1-3.2-2.1-4.6-3.5-.5-.5-.9-1.1-.9-1.7.1-.8.8-1.4 1.4-1.8.8-.6 1.7-1.2 2.5-1.7-1.1-.5-2.3.2-3.5.5-2.1.4-4.2-.7-5.5-2.4-.9-1.1-1.4-2.4-1.9-3.7.2-.4-.3-3.5-.6-3.5z" fill="#f93428"/><path d="m179.7 233.9c.8 1.7 2.1 3.3 3.7 4.1 1.7.8 3.3.4 4.8-.8-2 .5-3.5 0-4.8-1.5s-1.9-3.6-2-5.6c0-.5 0-1.2-.4-1.6-.3-.4-.9-.5-1.4-.5-1.6.2-1.3 1-1 2.3.3 1.2.6 2.4 1.1 3.6z" fill="#f2856b"/><path d="m187.4 238.6c-1.1.7-1.9 1.9-1.7 3.1.2 1.4 1.5 2.4 2.7 3 1 .5 2.4.7 3.4 1.3.2.1.5 0 .6-.3 0-.3.1-.6.3-.9.1-.1.1-.3-.1-.4-1.5-.5-3-1.1-4.3-2.1-.5-.4-1.1-1-1-1.7s.8-1.1 1.4-1.4c.7-.4 1.6-.8 2.2-1.2.4-.3.7-.5.1-.6-1-.2-2.9.7-3.6 1.2z" fill="#f2856b"/><path d="m78.9 221.6c5.3-3.3 10-4 18.7-3.8.3 0 .6.2.8.4.5.6-.2 1.5-.8 2-2.8 2.1-5.6 4.3-8.4 6.4-2 1.5-4.1 3.2-4.9 5.6-.6 1.8-.5 4-1.9 5.3-.8.7-1.8 1-2.9 1.1-2.6.3-5.2-.2-7.4-1.5-2.7-1.5-2.2-2.9-1.3-5.6 1.3-4.6 3.8-7.3 8.1-9.9z" fill="#d31e11"/><path d="m77.7 231.8c-.7-2.3-.5-4.8.7-7 1.3-2.4 3.6-4.2 6.2-5.2 2.5-1 5.3-1.4 8-1.6 4.2-.3 8.6-.3 12.7.4.7.1 1 1 .5 1.5-1.9 2-4.5 3.4-6.4 5.5-1.9 2-3 4.6-4.2 7.2-.7 1.5-1.4 3.1-2.8 4.1-1.1.7-2.4 1-3.7 1.1-2.1.1-4.9 0-6.9-.8-2-.9-3.5-3.3-4.1-5.2z" fill="#f46b45"/><path d="m80.7 231c-1.5-2.7-.9-6.4 1.5-8.3 1.2-1 2.6-1.5 4.1-2 4-1.2 8.3-1.6 12.4-1.2.8.1 1.6.3 2 .9.3.5.1 1.2-.1 1.7-.8 1.5-2.4 2.3-3.9 3s-3.2 1.3-4.2 2.7c-.8 1-1.1 2.2-1.4 3.5-.3 1.2-.5 2.5-1.2 3.5-.7 1.1-1.8 1.9-3.1 1.8-1-.1-1.9-.7-2.6-1.4-1.7-1.6-3.1-3.6-3.9-5.9" fill="#fe915a"/><path d="m80.6 230.6c-.7-2.2-.5-4.7.8-6.5 1.2-1.6 3.2-2.5 5.1-3.1 3.4-1 7-1.4 10.6-1.1 1 .1 2.3.5 2.4 1.5.1.7-.5 1.3-1.1 1.6-.7.3-1.4.2-2.1.2-2.5 0-5.2.5-7.2 2s-3.3 4.3-2.5 6.7c.2.6.5 1.2.7 1.8s.2 1.3-.1 1.9c-2 3.3-6.1-3.5-6.6-5z" fill="#ed330f"/><g fill="#faee4a"><path d="m85.3 235.1c-.2 0-.5 0-.7-.1s-.4-.3-.5-.5c-.1-.3.1-.5.2-.7.2-.2.4-.3.7-.3.5-.1 2-.2 2.1.5.1.6-1.4 1-1.8 1.1z"/><path d="m83.1 230.5c-.3.1-.6.3-.6.6s.2.5.5.6.5 0 .8 0c.8-.2 1.7-.6 2.3-1.1-.4-.9-2.4-.3-3-.1z"/><path d="m84 228.8c-.8-.1-1.6-.6-1.9-1.3 0-.1 1.9.1 2.1.1.7.2 1.5.4 2 .9-.5.3-1.5.3-2.2.3z"/><path d="m84.1 225c-.1-.2-.2-.5-.1-.8.1-.2.4-.2.5-.1.2 0 .4.2.5.3.3.2 2.2 1.6 1.5 2.1-.5.5-2.1-1.1-2.4-1.5z"/><path d="m87 222.9c-.1-.2-.1-.4-.1-.6.1-.2.3-.4.5-.4s.3.2.4.4c.2.4 1.5 2.2.8 2.4-.6.2-1.4-1.4-1.6-1.8z"/><path d="m89.8 222c-.1-.2-.1-.5 0-.7s.3-.4.5-.4.4.2.5.4.1.4.1.6c0 .6.2 1.4 0 1.9-.7-.2-1-1.3-1.1-1.8z"/><path d="m93.1 220.6c.8.1.5 2-.1 2-.6-.1-.7-2.1.1-2z"/><path d="m95.3 220.5c.1-.2.3-.3.5-.3s.3.2.3.4 0 .3-.1.5c-.1.4-.3 1.8-.8 1.2-.3-.4-.1-1.4.1-1.8z"/><path d="m97.1 221.2c0-.3.1-.6.3-.7.2-.2.6-.2.7 0s0 .4 0 .6c-.2.5-.4 1.1-.7 1.7-.4-.3-.3-1.1-.3-1.6z"/></g><path d="m172.2 214.7s-9-1.9-13.9 5.9c-4.9 7.9-.4 13.7-.4 13.7h12l2.8-3.7-.4-15.6" fill="#d31e11"/><path d="m170.4 214.7c-1.2-.1-2.4.6-3.1 1.6s-1 2.3-1 3.5c-.1 2.1.4 4.2 1.2 6.1s2 3.7 3.2 5.4c.5.6.9 1.3.7 2-.2.5-.8.8-1.4 1-1.9.4-3.9-.3-5.3-1.7-1.4-1.3-2.2-3.2-2.6-5.1-.6-3-.3-6.3 1.4-8.9s4.8-4.3 7.9-3.9" fill="#e93712"/><path d="m166.3 225.9c-1-2.8-1.1-5.9 0-8.6.4-1 1.1-2 2-2.5 1.6-.8 3.5-.3 5.1.6 2.4 1.4 4.4 3.5 5.7 5.9-1.2.7-1.8 2-2.1 3.3s-.3 2.7-.4 4-.5 2.7-1.4 3.7c-3.7 4.1-7.9-3.6-8.9-6.4z" fill="#f46b45"/><path d="m173.2 218.4c1.3.1 2.6 1 2.7 2.3.1 1-.4 1.9-.8 2.8-.8 1.8-1 4-.6 5.9.1.3.2.7.1 1.1 0 .4-.3.7-.6.8-.3 0-.5-.1-.8-.2-1.8-1.1-3.3-2.8-4-4.8-.6-1.7-1-4.2-.1-5.9.6-1.4 2.8-2.1 4.1-2z" fill="#fe915a"/><path d="m170.9 220c-.9 1.2-1.1 2.8-.8 4.2s1 2.8 1.7 4.1c.4.9.9 1.7 1.3 2.6-1.3.1-2.6-.7-3.4-1.7-.8-1.1-1.2-2.4-1.5-3.7-.4-1.7-.6-3.5 0-5.2s2.1-3.1 3.8-3.1c.8 0 2.3.5 2.5 1.5-.5.2-1.3 0-1.9.1-.6.3-1.2.7-1.7 1.2z" fill="#e82a10"/><path d="m169.4 227.7c.2-.1.4-.2.6-.3.6-.2 1.3-.1 1.9.2s0 .7-.4.8c-.7.2-1.5-.3-2.1-.7z" fill="#f3e440"/><path d="m171.5 226.4c.2 0 .3.1.5 0s.3-.1.4-.3c.1-.3-.2-.5-.4-.7-.4-.3-1.5-.9-1.9-.3-.5.9.9 1.2 1.4 1.3z" fill="#f3e440"/><path d="m171.4 224.5c.1.1.3.1.4.1.2 0 .3-.1.4-.2.1-.2 0-.4-.1-.5-.3-.5-1.9-1.8-2.5-1.2-.7.6 1.4 1.6 1.8 1.8z" fill="#f3e440"/><path d="m172.1 222.3c.1.1.2.1.3.1s.3-.1.3-.2-.1-.2-.1-.3c-.4-.5-.8-.9-1.3-1.2-.4-.3-1.8-.7-1.3.2.3.6 1.5 1.1 2.1 1.4z" fill="#f3e440"/><path d="m174.3 220.6c.3-.1.3-.6.2-.9-.2-.5-1.7-2.1-2.1-1-.3.7 1.3 2.2 1.9 1.9z" fill="#f3e440"/><path d="m230.1 213.7c-1.1.3-2.1.7-3 1.4s-1.2 2-.7 3c.6 1 1.9 1.3 3 1.7 1.6.7 2.7 2.1 3.6 3.6s1.6 3.1 2.6 4.4c.7.9 1.7 1.7 2.8 1.6.8-.1 1.4-.6 2-1.1.8-.7 1.6-1.5 2.1-2.5.6-1.3.6-2.7.2-4.1-.4-1.3-1.2-2.5-2.1-3.6-1.5-1.7-3.3-3.1-5.4-3.8s-4.5-.7-6.5.2" fill="#d4200f"/><path d="m208.8 215.2c1.1-1.1 2.9-1.4 4.4-.8 0-1.7 1.5-3.2 3.2-3.4.9-.1 1.8.2 2.6-.1.7-.2 1.3-.9 1.9-1.3 1.1-.7 2.6-.7 3.7-.1s1.9 1.9 1.9 3.2c1.6-.2 3 1.7 2.4 3.1-.3.7-.9 1.5-.5 2.2.3.5.9.6 1.5.6 1.3.1 2.9.3 3.4 1.5.2.5.2 1 .3 1.5.5 2.4 3.1 4.1 3 6.5 1-.9 1.9-1.8 3.1-2.3 1.2-.6 2.6-.8 3.8-.3s2 1.9 1.7 3.2c-.2.7-.8 1.3-1 2s-.1 1.7.6 1.9 1.3-.5 2-.7c1-.3 2.1.5 2.3 1.5s-.3 2.1-1 2.8c-.8.7-1.8 1-2.8 1.3-2.6.6-5.3.4-7.8-.4-.9-.3-1.8-.7-2.2-1.5-.8-1.3-.2-2.9-.1-4.4.2-2.5-1-5-2.5-7.1-3.4-4.6-8.6-7.8-14.3-8.9-2.6-.5-5.4-.6-7.7.8-1.3.8-2 1.9-2.8 3.1-.9-1.2 0-3.1.9-3.9z" fill="#8dba46"/><path d="m192.2 207.7c2.1-1.2 4.5-1.9 6.8-1.6 2.4.3 4.6 1.9 5.3 4.2s-.5 5.1-2.8 5.7c-3.3.9-6.5-2.6-9.8-2-.9.2-1.7.7-2.6.9-.6.2-2.3.5-2.6-.3-.3-.7.8-2.2 1.1-2.7 1.1-1.7 2.8-3.1 4.6-4.2z" fill="#9aca50"/><path d="m153.4 237.5c-2-.5-4-1.5-5.2-3.2-.3-.4-.6-1-.4-1.5.3-.7 1.3-.8 2-.6 1.3.3 2.4 1.1 3.5 1.7 1.2.6 2.5 1.1 3.8.8 1-.2 1.8-.9 2.7-1.5 1.5-.9 3.2-1.4 4.9-1.4 1 0 2.1.1 2.9-.5.6-.5.9-1.3 1.2-2s1-1.4 1.8-1.3c-.5 1.5-.6 3.1-.4 4.6.3 1.9 1 3.9.1 5.6-.2.4-.6.8-1 .7-1-.1-.8-1.9-1.8-2.2-1.4 1.4-2.8 2.8-4.2 4.2-.2.2-.4.4-.5.7-.2.5 0 1 .1 1.5.7 2.8-.9 6-3.6 7-.4.2-1 .3-1.4.1-.7-.3-.9-1.3-.6-2.1s.8-1.4 1.1-2.1c.4-.8.2-2.1-.7-2.3-.5-.1-.9.2-1.3.5-.9.6-1.7 1.1-2.6 1.7-.4.3-.9.6-1.4.7s-1.1 0-1.4-.5-.1-1.2.5-1.2c-3.5 1.4-6.9 2.9-10.4 4.3-.7.3-1.5.6-2.3.5s-1.5-.9-1.3-1.7c.3-1.1 2.3-1.3 2.2-2.4-4.8.1-9.5-.9-13.9-2.8-.6-.3-1.2-.6-1.3-1.3 0-.5.3-.9.7-1.2.4-.2.9-.2 1.4-.2 2.9 0 5.9.7 8.4 2.1 0-.7-.8-1.2-1.5-1.4s-1.5-.6-1.6-1.3.6-1.3 1.3-1.4 1.4.2 2 .5c.3-.8-.4-1.5-1.1-2s-1.5-1-1.5-1.8c0-.7.8-1.3 1.5-1.3s1.4.3 2 .6c1.9 1 3.6 2.3 5 3.9.1-.5.2-.9.3-1.4 1.8 1.5 3.5 3 5.3 4.5.3.2.6.5.9.5.4.1.8-.1.9-.5.1-.6-.7-.9-1.1-1.3-.5-.7.1-1.8.9-2s1.7.2 2.4.7 1.3 1.1 2.1 1.5c1.9.9 4.1-.1 5.9-1 .4-.2 1.4-.8.9-1.5-.3-.4-1-.1-1.4-.1-1.3.7-3.1.5-4.8.1z" fill="#3e9c2a"/><path d="m170.3 229.1c-1.2 3.5-3.2 6.7-5.9 9.3-1.4 1.2-3 2.3-4.6 3.2s-3.3 1.7-5 2.4c-1.7.6-3.6 1-5.5 1-1.9.1-3.8-.3-5.5-.6-1.8-.3-3.5-.6-5.3-.3-.9.1-1.8.3-2.8.3-.9 0-2-.3-2.6-.9l.1-.1c.8.5 1.7.5 2.6.5.9-.1 1.7-.4 2.6-.6 1.9-.5 3.8-.3 5.6-.1 1.8.3 3.6.7 5.3.7 1.8 0 3.6-.2 5.3-.6 1.8-.4 3.5-1.1 5-2.1s2.9-2.2 4.1-3.5c2.5-2.6 4.6-5.5 6.5-8.7z" fill="#31821d"/><path d="m137.1 237.4c.5 0 .9.5 1.2.9s.4.9.5 1.3c.2.4.3.8.6 1 .2.2.4.2.9.1.2 0 .5-.1.8 0 .3 0 .6.1.9.3.5.3.9.7 1.1 1.1.5.8.8 1.7 1.6 2.2-.5 0-1-.3-1.3-.6-.4-.3-.7-.7-1-1s-.6-.6-.9-.7-.5-.1-1-.1c-.2 0-.5.1-.9 0-.3-.1-.7-.2-.9-.5-.4-.5-.6-1-.7-1.5s-.1-.9-.2-1.4c-.1-.4-.3-.8-.7-1.1z" fill="#31821d"/><path d="m154.5 244c-.4-.4-.8-.5-1.3-.7-.4-.1-.9-.2-1.5-.4-.5-.2-1.2-.5-1.5-1.1-.1-.3-.2-.6-.2-.9s.2-.6.5-.7c-.2.6.1.9.4 1.2s.6.4 1.1.6c.4.2 1 .3 1.5.6.5.2 1 .8 1 1.4z" fill="#31821d"/><path d="m167 233.6c-.2.7-.7 1.3-1.3 1.7s-1.4.6-2.1.7c-1.5.2-2.7 0-4 .4-1.3.3-2.7.7-4.2.6-.7 0-1.5-.2-2.1-.5s-1.2-.9-1.5-1.5c1 1.1 2.4 1.2 3.6 1.2 1.3-.1 2.6-.6 3.9-.9.7-.1 1.4-.2 2.2-.2l2.1.1c.7 0 1.3-.1 1.9-.3.6-.3 1.1-.7 1.5-1.3z" fill="#31821d"/><path d="m162.2 239.7c-.6.7-1 1.4-1.2 2.2s-.3 1.5-.2 2.3.3 1.7.1 2.7c-.1.5-.3 1-.7 1.3s-.9.5-1.4.3c.4-.1.8-.4 1-.7s.3-.7.3-1.1c0-.8-.3-1.5-.4-2.5s.1-2 .6-2.8c.3-.7 1-1.4 1.9-1.7z" fill="#31821d"/><path d="m145.3 244.5c-.1 1.1-.9 2.1-1.9 2.7s-2.2.8-3.3.3c1-.4 1.9-.8 2.7-1.3.9-.5 1.7-1 2.5-1.7z" fill="#31821d"/><path d="m168.4 232.6c.4.7.6 1.2.8 1.7.2.6.3 1.1.3 1.8-.7-.2-1.2-.9-1.4-1.5s-.1-1.4.3-2z" fill="#31821d"/><path d="m122.5 205.8c2.2.9 4 3.3 3.2 5.6 1.3-.1 2.6-.3 3.9.1 1.2.4 2.3 1.6 2.2 2.9-.1.7-.5 1.4-.7 2s-.3 1.5.2 2c.6.6 1.7.5 2.3 1.1.7.7.4 1.9-.5 2.5-.8.5-1.8.5-2.8.4-1.6-.2-3.1-.7-4.4-1.6s-2.3-2.4-2.4-3.9c-.2-1.7.6-3.5-.1-5.2-.6-1.7-2.5-2.5-4.3-3.1-1.8-.5-3.7-.9-4.9-2.3 2.1-1.5 6-1.4 8.3-.5z" fill="#8ec832"/><path d="m54.2 237.7c-1.8-1-3.4-3-2.8-5 .4-1.2 1.7-2.1 3-2.3s2.6-.1 3.9.1c2.7.4 5.5.8 7.8 2.3.7.5 1.4 1 2.2 1.1 1.6.2 3.2-1.4 4.6-.6.7.4 1 1.1 1.4 1.7s1.2 1.2 1.9.9c.8-.3.9-1.5 1.6-2 .9-.8 2.3 0 3.1.9s1.7 2 2.9 2c2.2-.1 2.4-4.1 4.6-4.6 2.4-.6 3.9 3.8 6.4 3.3 1.2-.2 1.9-1.6 2.8-2.4 1.1-1.1 2.9-1.4 4.3-.8s2.5 2.1 2.5 3.6c.1 2-1.2 4.2 0 5.8.9 1.1 2.5 1.2 3.9 1s2.9-.5 4.1.2c2 1.2 2.3 4.7 4.6 5.1 1.6.2 2.8-1.2 4.1-2.1 3.1-2.3 8.1-1.5 10.3 1.7-4.9 1.9-10.3 2-15.5 1.9-16.9-.4-33.8-2.9-50.2-7.2-4.3-1-7.8-2.6-11.5-4.6z" fill="#a1ce41"/></svg>